<svg width="544" height="576" viewBox="0 0 544 576" fill="none" xmlns="http://www.w3.org/2000/svg">
<rect width="544" height="576" fill="white"/>
<path d="M218.284 417.614C216.846 418.231 215.057 418.489 214.021 419.519C200.334 433.134 186.82 446.927 173.062 460.467C171.303 462.199 168.416 463.708 166.045 463.718C121.2 463.91 76.3548 463.862 31.5095 463.851C30.3222 463.85 29.135 463.694 27.4355 463.575C27.4355 407.055 27.4355 350.681 27.4355 293.606C18.0649 293.606 9.17566 293.606 0 293.606C0 265.371 0 237.837 0 209.954C7.88633 209.954 15.4922 209.819 23.0894 210.018C26.288 210.102 27.3507 209.014 27.2771 205.819C27.1326 199.537 27.3187 193.248 27.7067 186.878C28.0453 186.795 28.293 187.106 28.6219 187.356C30.8454 187.694 32.74 187.856 34.6346 187.857C96.4503 187.87 158.266 187.936 220.081 187.745C225.32 187.729 226.722 189.023 226.706 194.393C226.51 259.095 226.571 323.797 226.619 388.498C226.621 390.502 227.214 392.504 227.556 394.814C227.588 395.326 227.595 395.531 227.363 395.991C226.138 396.537 225.039 397.269 224.182 397.047C218.761 395.643 218.033 398.595 218.221 402.992C218.429 407.858 218.279 412.739 218.284 417.614ZM217.113 198.928C216.761 198.737 216.409 198.547 215.106 198.235C156.551 198.235 97.9966 198.235 39.6367 198.235C39.6367 202.645 39.6367 206.057 39.6367 210.115C54.0938 210.115 68.157 210.115 82.3568 210.115C82.3568 238.135 82.3568 265.486 82.3568 293.607C67.8641 293.607 53.6437 293.607 39.2704 293.607C39.2704 345.583 39.2492 396.788 39.3843 447.994C39.3879 449.364 41.0837 450.729 41.5696 452.506C42.9461 452.38 44.3226 452.253 46.3326 451.905C46.5424 451.983 46.7521 452.061 47.4634 452.842C47.9521 452.99 48.4406 453.268 48.9294 453.268C83.7624 453.301 118.595 453.316 153.428 453.274C153.809 453.274 154.189 452.519 155.404 451.734C156.064 450.214 157.283 448.698 157.297 447.172C157.435 430.948 157.383 414.722 157.382 398.497C157.382 396.643 157.382 394.788 157.382 392.238C177.447 392.238 196.757 392.238 216.668 392.064C216.895 391.479 217.122 390.895 217.917 389.672C218.034 388.642 218.255 387.613 218.255 386.584C218.271 325.705 218.275 264.826 218.231 203.947C218.23 202.458 217.689 200.97 217.113 198.928ZM16.3402 284.532C19.771 280.785 23.974 277.485 26.4206 273.169C28.9896 268.637 32.1162 265.994 36.9602 264.969C39.66 264.398 42.3289 263.249 45.0246 263.207C47.7136 263.166 50.5059 263.919 53.0966 264.795C57.1352 266.161 60.9225 268.513 65.036 269.363C69.6132 270.308 73.4349 267.257 74.0076 263.406C74.5391 259.832 71.2666 255.86 66.7164 255.394C62.7939 254.993 58.7837 255.21 54.829 255.442C47.3595 255.882 39.8988 246.003 42.1069 238.901C43.4306 234.644 44.3936 230.141 44.6108 225.703C44.8098 221.639 42.1721 218.62 38.063 218.207C33.7217 217.77 31.0623 220.785 30.725 224.73C30.3769 228.802 30.2269 233.469 31.85 237.004C34.4569 242.682 33.1233 247.287 30.6621 252.172C29.957 253.571 29.1416 254.943 28.6564 256.421C27.1949 260.873 24.1389 263.204 19.9486 265.237C15.7618 267.268 11.5312 270.344 8.82154 274.074C4.87034 279.514 8.67113 284.956 16.3402 284.532ZM169.263 430.755C169.263 435.724 169.263 440.693 169.263 446.134C183.206 431.817 196.57 418.094 209.524 404.793C196.806 404.793 183.272 404.793 169.263 404.793C169.263 413.36 169.263 421.534 169.263 430.755ZM111.78 197.267C146.809 197.267 181.839 197.267 216.868 197.267C216.867 197.026 216.865 196.785 216.863 196.544C158.511 196.544 100.159 196.544 41.8063 196.544C41.8057 196.785 41.8051 197.026 41.8045 197.267C64.7832 197.267 87.762 197.267 111.78 197.267Z" fill="#E21B1A"/>
<path d="M27.803 187.416C28.8481 187.061 30.2218 186.864 31.5955 186.864C96.2461 186.864 160.897 186.88 226.025 186.928C226.526 255.761 226.55 324.559 226.542 393.842C226.192 392.325 225.599 390.325 225.598 388.324C225.549 323.697 225.488 259.071 225.684 194.444C225.7 189.081 224.3 187.788 219.066 187.804C157.314 187.995 95.5619 187.929 33.8095 187.916C31.9169 187.915 30.0242 187.752 27.803 187.416Z" fill="#F31F12"/>
<path d="M144.106 229.084C130.863 229.084 118.139 229.084 105.033 229.084C105.033 226.571 105.033 224.419 105.033 221.875C137.54 221.875 170.009 221.875 202.859 221.875C202.859 224.125 202.859 226.281 202.859 229.084C183.449 229.084 164.037 229.084 144.106 229.084ZM197.955 227.069C167.471 227.069 136.988 227.069 106.504 227.069C106.505 227.277 106.506 227.485 106.507 227.694C137.943 227.694 169.378 227.694 200.814 227.694C200.817 227.526 200.821 227.358 200.824 227.19C200.156 227.149 199.487 227.109 197.955 227.069Z" fill="#E22D2E"/>
<path d="M196.305 292.819C165.425 292.819 135.051 292.819 104.462 292.819C103.396 289.304 104.094 287.773 107.575 287.779C138.497 287.831 169.419 287.775 200.34 287.919C201.527 287.924 202.706 289.626 203.888 290.538C202.752 291.297 201.695 292.321 200.457 292.738C199.345 293.111 198.034 292.818 196.305 292.819Z" fill="#E2494B"/>
<path d="M197.237 304.323C198.953 304.331 200.255 304.112 201.381 304.418C202.324 304.674 203.06 305.545 203.888 306.144C202.98 306.853 202.182 307.792 201.13 308.2C200.244 308.544 199.063 308.27 198.012 308.27C168.593 308.27 139.175 308.27 109.756 308.263C108.358 308.263 106.886 308.413 105.592 308.062C104.865 307.864 103.974 306.766 104.004 306.105C104.033 305.501 105.111 304.6 105.887 304.434C107.215 304.15 108.667 304.327 110.067 304.327C138.96 304.324 167.854 304.323 197.237 304.323Z" fill="#EA3C3E"/>
<path d="M147.78 262.014C134.425 262.015 121.589 262.107 108.757 261.899C107.163 261.873 105.588 260.247 104.004 259.363C105.505 258.543 107.003 257.014 108.507 257.007C138.511 256.868 168.516 256.912 198.521 256.895C200.995 256.894 203.664 256.459 202.63 262.014C184.554 262.014 166.427 262.014 147.78 262.014Z" fill="#EB3233"/>
<path d="M128.728 372.251C129.171 372.198 129.614 372.145 130.412 372.627C130.933 375.774 131.523 378.411 127.333 378.396C103.185 378.309 79.0359 378.392 54.8881 378.241C53.7492 378.234 52.6205 376.553 51.487 375.652C52.6484 374.798 53.7186 373.736 55.0032 373.162C55.8625 372.779 57.0264 373.087 58.054 373.087C79.805 373.087 101.556 373.107 123.307 373.051C125.114 373.046 126.921 372.53 128.728 372.251Z" fill="#E21819"/>
<path d="M125.079 245.517C119.142 245.514 113.72 245.668 108.321 245.406C106.848 245.334 105.441 244.011 104.004 243.262C105.403 242.662 106.798 241.551 108.202 241.54C123.742 241.413 139.283 241.455 154.823 241.454C169.49 241.453 184.159 241.391 198.824 241.541C200.519 241.559 202.201 242.761 203.888 243.414C202.24 244.115 200.594 245.418 198.941 245.426C174.496 245.558 150.05 245.517 125.079 245.517Z" fill="#EE3D3F"/>
<path d="M70.2812 323.784C64.145 323.789 58.5177 323.892 52.9005 323.722C51.7235 323.686 50.5842 322.64 49.4275 322.06C50.598 321.272 51.7641 319.803 52.9395 319.797C77.9898 319.667 103.041 319.671 128.092 319.795C129.334 319.801 130.569 321.133 131.807 321.847C130.556 322.495 129.309 323.699 128.053 323.707C108.967 323.825 89.8805 323.786 70.2812 323.784ZM116.878 322.899C120.083 322.899 123.287 322.899 126.491 322.899C126.478 322.696 126.464 322.494 126.45 322.292C102.672 322.292 78.8943 322.292 55.1164 322.292C55.1168 322.494 55.1172 322.696 55.1176 322.898C75.3681 322.898 95.6186 322.898 116.878 322.899Z" fill="#DF3A3B"/>
<path d="M122.647 407.289C125.384 407.298 127.645 407.072 129.832 407.44C130.622 407.573 131.513 409.031 131.798 410.091C131.919 410.539 130.697 411.849 129.908 412.173C128.988 412.551 127.874 412.288 126.844 412.288C102.636 412.29 78.4283 412.292 54.2204 412.288C53.1924 412.288 52.0629 412.539 51.1675 412.122C50.4038 411.767 49.445 410.632 49.4277 409.818C49.4109 409.022 50.3668 407.717 51.0923 407.487C52.3772 407.081 53.8111 407.293 55.1827 407.293C77.502 407.287 99.8213 407.289 122.647 407.289Z" fill="#EC2E30"/>
<path d="M72.225 339.239C65.5612 339.234 59.4063 339.352 53.2645 339.127C51.9611 339.08 50.7053 337.782 49.4275 337.061C50.5821 336.423 51.7343 335.234 52.8918 335.229C78.0047 335.121 103.118 335.121 128.231 335.22C129.425 335.225 130.615 336.343 131.807 336.943C130.568 337.7 129.335 339.106 128.09 339.116C109.64 339.266 91.1893 339.231 72.225 339.239Z" fill="#EE373A"/>
<path d="M77.3706 391.81C94.2863 391.81 110.689 391.748 127.089 391.906C128.669 391.921 130.235 393.298 131.807 394.043C130.274 394.662 128.744 395.813 127.209 395.819C102.777 395.931 78.3446 395.93 53.9131 395.809C52.4147 395.802 50.9226 394.575 49.4275 393.916C50.8822 393.215 52.3209 391.947 53.7943 391.907C61.477 391.703 69.1685 391.811 77.3706 391.81Z" fill="#EE3B3D"/>
<path d="M131.327 356.402C104.879 356.716 78.8197 356.808 52.7608 356.759C51.6484 356.757 50.5385 355.462 49.4275 354.769C50.5735 354.068 51.7166 352.761 52.8659 352.755C78.0721 352.636 103.279 352.666 128.486 352.652C130.89 352.651 132.713 353.087 131.327 356.402Z" fill="#ED3436"/>
<path d="M89.7097 423.72C102.689 423.72 115.155 423.647 127.618 423.819C129.024 423.838 130.411 425.241 131.807 426.002C130.424 426.608 129.044 427.737 127.659 427.743C102.9 427.85 78.14 427.853 53.381 427.735C52.0601 427.729 50.7452 426.47 49.4275 425.794C50.7308 425.102 52.0263 423.826 53.3384 423.809C65.2893 423.655 77.2431 423.72 89.7097 423.72Z" fill="#EF3D3F"/>
<path d="M183.12 273.453C188.493 273.449 193.352 273.298 198.193 273.526C199.772 273.601 201.305 274.668 202.859 275.28C201.363 275.983 199.879 277.259 198.369 277.293C189.536 277.487 180.696 277.393 171.858 277.393C151.41 277.393 130.961 277.392 110.512 277.389C109.299 277.389 107.994 277.655 106.9 277.284C105.823 276.92 104.96 275.902 104.004 275.171C104.901 274.597 105.736 273.805 106.715 273.511C107.672 273.223 108.777 273.442 109.816 273.442C134.077 273.446 158.338 273.449 183.12 273.453Z" fill="#E92326"/>
<path d="M127.684 372.489C126.336 372.945 124.532 373.466 122.726 373.471C101.007 373.527 79.2871 373.507 57.5673 373.507C56.5412 373.507 55.3789 373.196 54.5209 373.583C53.2381 374.162 52.1695 375.232 51.0097 376.094C52.1416 377.002 53.2686 378.697 54.406 378.704C78.5191 378.856 102.634 378.772 126.747 378.86C130.931 378.875 130.342 376.216 130.146 373.14C130.703 373.184 131.778 373.655 131.795 374.163C131.865 376.187 131.605 378.223 131.454 380.455C104.467 380.455 77.3459 380.455 50.2891 380.455C48.5641 372.774 48.9569 372.21 55.9034 372.218C79.6783 372.244 103.453 372.281 127.684 372.489Z" fill="#EC474A"/>
<path d="M198.35 227.024C199.456 227.09 200.127 227.157 200.799 227.224C200.796 227.501 200.792 227.777 200.789 228.054C169.214 228.054 137.64 228.054 106.066 228.054C106.065 227.711 106.064 227.368 106.063 227.025C136.681 227.025 167.299 227.025 198.35 227.024Z" fill="#FE1920"/>
<path d="M290.4 398.672C290.423 380.888 290.46 363.105 290.465 345.321C290.474 314.99 290.463 284.658 290.46 254.327C290.46 252.157 290.46 249.987 290.46 246.696C280.942 246.696 271.868 246.435 262.818 246.799C257.806 247.001 255.958 245.711 256.001 240.27C256.242 209.501 256.192 178.728 256.014 147.958C255.988 143.402 257.229 141.671 261.899 141.885C269.081 142.214 276.308 141.647 283.48 142.075C288.786 142.391 291.015 140.928 290.577 135.225C290.107 129.106 290.566 122.921 290.369 116.773C290.262 113.393 291.51 111.868 294.877 112.009C297.272 112.109 299.674 112.049 302.073 112.049C379.933 112.05 457.793 112.049 535.653 112.049C537.792 112.049 539.931 112.049 543.05 112.049C543.05 114.925 543.05 117.244 543.05 119.563C543.047 205.941 543.012 292.32 543.127 378.699C543.134 383.417 541.996 386.834 538.541 390.254C515.517 413.045 492.737 436.087 469.456 458.891C469.034 458.735 469.009 458.251 468.628 457.854C465.883 457.275 463.52 456.934 461.156 456.932C407.836 456.902 354.516 456.909 301.196 456.909C299.673 456.909 297.877 457.415 296.691 456.775C295.005 455.865 292.551 454.126 292.534 452.715C292.409 442.444 292.813 432.166 292.978 421.906C292.906 421.921 292.903 421.774 293.326 421.988C294.328 422.071 294.907 421.939 295.486 421.808C295.165 421.148 294.844 420.489 294.722 419.415C297.357 416.412 299.791 413.824 303.276 410.12C298.694 406.046 294.547 402.359 290.4 398.672ZM305.661 135.697C304.922 140.562 306.845 142.213 311.814 142.103C325.768 141.793 339.74 142.237 353.691 141.867C359.041 141.725 360.275 143.555 360.239 148.656C360.025 178.992 360.019 209.332 360.238 239.668C360.277 244.992 359.03 246.94 353.37 246.797C337.73 246.402 322.075 246.66 306.043 246.66C306.043 312.614 306.043 377.996 306.043 443.669C355.445 443.669 404.548 443.669 454.202 443.669C454.202 419.062 454.202 394.984 454.202 370.229C478.847 370.229 502.947 370.229 527.23 370.229C527.23 289.041 527.23 208.541 527.23 128C453.154 128 379.583 128 305.666 128C305.666 130.566 305.666 132.53 305.661 135.697ZM518.632 388.85C519.224 387.897 519.816 386.944 520.363 386.065C503.079 386.065 486.217 386.065 469.459 386.065C469.459 403.407 469.459 420.122 469.459 436.836C469.973 437.168 470.486 437.5 471 437.831C486.657 421.724 502.315 405.617 518.632 388.85ZM297.502 203.16C296.979 204.274 296.457 205.387 295.852 206.678C303.731 209.512 302.976 200.167 307.537 198.784C314.398 207.51 314.398 207.51 319.551 205.659C310.468 197.891 310.482 189.58 319.134 181.418C311.045 178.34 311.277 186.141 307.737 188.365C300.433 180.698 300.433 180.698 296.051 181.462C300.996 188.088 306.501 194.76 297.502 203.16ZM286.171 206.846C286.471 201.7 286.888 196.557 287.026 191.406C287.112 188.208 286.763 185.113 291.449 185.19C292.246 185.203 293.069 183.681 293.879 182.869C292.82 182.072 291.826 180.725 290.689 180.588C287.911 180.253 285.028 180.184 282.261 180.561C279.57 180.928 276.971 181.983 274.331 182.736C276.421 184.112 278.512 185.488 281.113 187.201C281.113 192.134 280.827 197.604 281.297 203.007C281.429 204.518 283.792 205.831 286.171 206.846ZM325.166 180.492C323.63 181.23 322.095 181.968 320.559 182.706C321.112 183.538 321.703 185.116 322.212 185.089C329.21 184.718 327.44 189.821 327.54 193.642C327.652 197.959 327.566 202.282 327.566 206.631C331.924 207.898 333.834 207.169 333.391 202.588C333.014 198.692 333.341 194.732 333.241 190.803C333.162 187.709 333.291 185.097 337.525 185.162C338.431 185.176 339.364 183.439 340.284 182.509C339.088 181.833 337.93 180.67 336.69 180.574C333.243 180.306 329.762 180.482 325.166 180.492Z" fill="#00008B"/>
<path d="M466.52 155.358C480.873 155.225 494.575 155.222 508.27 154.884C512.702 154.774 513.233 157.329 513.245 161.071C513.257 164.629 512.68 166.595 508.551 166.567C471.14 166.312 433.727 166.263 396.316 166.305C392.268 166.309 389.716 165.893 389.823 160.403C389.922 155.32 392.276 154.835 396.056 154.876C419.325 155.132 442.596 155.217 466.52 155.358Z" fill="#00008B"/>
<path d="M377.706 354.953C360.459 354.951 343.877 354.96 327.295 354.943C319.005 354.934 319.005 354.913 320.277 347.159C354.963 347.159 389.726 347.159 424.898 347.159C424.898 349.64 424.898 351.944 424.898 354.953C409.186 354.953 393.779 354.953 377.706 354.953Z" fill="#00008B"/>
<path d="M507.729 240.626C509.963 241.412 511.604 242.198 513.245 242.985C511.522 243.929 509.804 245.691 508.075 245.698C470.519 245.857 432.962 245.857 395.406 245.714C393.54 245.707 391.682 244.138 389.82 243.296C391.802 242.408 393.781 240.753 395.769 240.745C432.891 240.588 470.014 240.627 507.729 240.626Z" fill="#00008B"/>
<path d="M494.114 258.893C499.729 258.881 504.708 258.668 509.659 258.996C510.901 259.079 512.052 260.897 513.245 261.918C512.114 262.99 511.098 264.321 509.811 265.046C508.942 265.536 507.692 265.188 506.612 265.188C470.103 265.186 433.594 265.216 397.086 265.08C395.03 265.072 391.35 263.965 391.203 262.889C390.504 257.793 394.317 258.918 396.902 258.915C429.091 258.869 461.279 258.889 494.114 258.893Z" fill="#00008B"/>
<path d="M396.433 226.23C393.839 225.151 391.829 224.072 389.82 222.993C391.948 221.986 394.073 220.111 396.205 220.1C432.996 219.921 469.787 219.972 506.578 219.974C507.666 219.974 508.958 219.589 509.796 220.101C511.107 220.9 512.111 222.313 513.245 223.466C512.164 224.372 511.189 225.733 509.977 226.075C508.339 226.537 506.52 226.233 504.779 226.233C468.858 226.234 432.938 226.232 396.433 226.23Z" fill="#00008B"/>
<path d="M513.245 202.851C511.665 204.569 510.083 206.699 508.492 206.706C470.543 206.89 432.594 206.886 394.645 206.709C393.032 206.701 391.428 204.706 389.82 203.637C391.33 202.542 392.836 200.499 394.35 200.491C432.517 200.309 470.685 200.318 508.852 200.415C510.316 200.419 511.777 201.627 513.245 202.851Z" fill="#00008B"/>
<path d="M409.151 297.904C413.542 297.902 417.311 297.555 420.999 298.073C422.396 298.269 423.604 300.459 424.898 301.74C423.568 302.971 422.317 304.377 420.871 305.357C420.199 305.812 419.148 305.441 418.268 305.441C387.494 305.447 356.718 305.518 325.945 305.317C323.846 305.303 321.756 303.246 319.662 302.139C321.796 300.728 323.922 298.11 326.066 298.088C353.541 297.811 381.019 297.904 409.151 297.904Z" fill="#00008B"/>
<path d="M393.417 370.545C404.212 370.545 414.344 370.545 424.404 370.545C426.037 375.178 423.398 375.756 419.795 375.741C409.404 375.698 399.012 375.727 388.621 375.727C367.617 375.729 346.613 375.735 325.609 375.729C322.258 375.728 318.533 376.044 319.984 370.545C344.219 370.545 368.486 370.545 393.417 370.545Z" fill="#00008B"/>
<path d="M334.007 409.63C364.598 409.631 394.541 409.631 424.398 409.631C426.065 414.278 423.322 414.711 419.767 414.701C405.433 414.66 391.099 414.683 376.765 414.685C360.226 414.688 343.684 414.807 327.149 414.576C324.638 414.542 322.157 412.892 319.662 411.99C322.243 411.204 324.771 410.211 327.422 409.703C329.316 409.341 331.374 409.631 334.007 409.63Z" fill="#00008B"/>
<path d="M486.083 180.903C494.146 180.906 501.561 180.727 508.958 181.067C510.422 181.135 511.818 183.202 513.245 184.347C511.787 185.392 510.329 187.348 508.869 187.349C470.74 187.384 432.61 187.247 394.481 186.973C392.923 186.962 391.373 185.332 389.82 184.456C391.619 183.269 393.412 181.059 395.218 181.046C425.287 180.836 455.359 180.9 486.083 180.903Z" fill="#00008B"/>
<path d="M325.111 390.072C356.405 390.074 387.095 390.072 417.786 390.08C419.546 390.081 421.41 389.866 423.026 390.343C423.912 390.604 424.743 392.058 424.894 393.066C424.98 393.639 423.767 394.681 422.919 395C421.957 395.363 420.75 395.187 419.649 395.187C388.076 395.195 356.502 395.23 324.929 395.101C323.17 395.094 321.417 393.716 319.662 392.977C321.277 392.008 322.892 391.039 325.111 390.072Z" fill="#00008B"/>
<path d="M333.813 321.191C362.665 321.191 390.863 321.141 419.059 321.301C421.009 321.312 422.952 322.892 424.898 323.743C423 324.59 421.106 326.166 419.204 326.175C388.804 326.327 358.404 326.28 328.004 326.274C326.242 326.274 324.394 326.58 322.748 326.105C321.578 325.768 320.681 324.356 319.662 323.424C320.636 322.7 321.573 321.431 322.593 321.35C326.099 321.073 329.634 321.211 333.813 321.191Z" fill="#00008B"/>
<path d="M366.866 279.599C386.327 279.599 405.13 279.599 423.932 279.599C424.254 280.4 424.576 281.202 424.898 282.003C423.461 282.946 422.026 284.706 420.586 284.712C388.812 284.843 357.037 284.816 325.263 284.665C323.393 284.657 321.529 283.36 319.662 282.663C319.809 281.642 319.956 280.621 320.103 279.6C335.472 279.6 350.84 279.6 366.866 279.599Z" fill="#00008B"/>
<path d="M218.232 407.571C218.311 404.675 218.43 402.038 218.29 399.408C218.164 397.032 218.696 395.439 222.609 396.213C223.227 396.335 224.022 395.943 225.063 395.658C225.39 395.527 225.7 395.526 225.7 395.526C226.136 395.736 226.572 395.947 227.357 396.313C228.043 396.424 228.381 396.378 228.718 396.332C237.83 396.309 246.942 396.286 256.449 396.399C256.844 396.536 257.063 396.548 257.063 396.548L257.249 396.452C257.613 395.514 258.276 394.579 258.294 393.636C258.411 387.421 258.39 381.205 258.417 374.155C272.905 385.099 286.829 395.618 301.002 406.285C303.623 408.027 305.995 409.621 308.614 411.382C306.611 412.966 305.21 414.073 303.516 415.418C303.031 415.893 302.839 416.13 302.648 416.368C302.648 416.368 302.65 416.431 302.464 416.439C301.975 416.709 301.672 416.97 301.369 417.232C294.378 422.34 287.343 427.414 280.41 432.567C273.22 437.91 266.131 443.33 258.457 449.124C258.28 447.989 258.112 447.419 258.114 446.849C258.128 441.088 258.053 435.324 258.266 429.567C258.34 427.551 257.544 426.992 254.911 427.007C244.161 427.07 233.409 426.967 222.658 426.925C221.302 426.92 219.945 426.915 218.085 426.908C218.111 420.397 218.135 414.115 218.232 407.571Z" fill="#E21B1A"/>
</svg>
