<?xml version="1.0" standalone="no"?>
<!DOCTYPE svg PUBLIC "-//W3C//DTD SVG 20010904//EN"
 "http://www.w3.org/TR/2001/REC-SVG-20010904/DTD/svg10.dtd">
<svg version="1.0" xmlns="http://www.w3.org/2000/svg"
 width="512.000000pt" height="512.000000pt" viewBox="0 0 512.000000 512.000000"
 preserveAspectRatio="xMidYMid meet">
<metadata>
Created by potrace 1.11, written by Peter Selinger 2001-2013
</metadata>
<g transform="translate(0.000000,512.000000) scale(0.100000,-0.100000)"
fill="#000000" stroke="none">
<path d="M2485 4886 c-11 -7 -40 -24 -65 -37 -25 -14 -112 -63 -193 -109 -147
-84 -165 -95 -282 -159 -33 -19 -65 -38 -72 -43 -7 -5 -27 -18 -45 -27 -18
-10 -67 -37 -108 -61 -41 -23 -104 -58 -139 -77 -56 -31 -166 -95 -211 -123
-19 -12 -152 -86 -202 -112 -45 -24 -95 -79 -104 -113 -8 -31 15 -81 54 -118
38 -36 152 -107 172 -107 9 0 21 -5 26 -10 22 -22 188 -35 276 -22 87 13 125
29 339 144 64 35 220 119 347 188 l232 125 0 338 c0 185 -1 337 -3 337 -1 0
-11 -6 -22 -14z"/>
<path d="M2560 4563 l0 -338 23 -11 c12 -6 56 -30 97 -54 41 -24 91 -52 110
-62 19 -10 53 -29 75 -41 86 -49 715 -402 802 -451 297 -164 486 -271 573
-325 25 -15 81 -47 125 -71 44 -24 158 -88 254 -142 95 -54 177 -95 182 -92
15 9 11 604 -4 632 -10 20 -90 70 -302 190 -86 49 -226 128 -255 145 -19 11
-64 37 -100 57 -36 20 -157 90 -270 155 -113 64 -230 131 -260 148 -68 38
-121 69 -180 102 -79 46 -121 70 -330 189 -113 64 -212 121 -220 126 -8 5 -49
28 -90 51 -41 23 -91 51 -110 62 -19 11 -54 31 -77 45 l-43 24 0 -339z"/>
<path d="M2200 3996 c0 -3 16 -32 36 -65 30 -51 38 -58 53 -49 13 8 25 5 51
-10 19 -11 72 -41 118 -67 45 -26 84 -51 87 -55 7 -12 27 -123 74 -424 11 -71
24 -133 28 -137 5 -5 53 23 108 61 55 38 110 75 122 82 12 7 75 49 138 93 64
44 124 85 133 90 9 6 33 22 54 38 28 21 38 24 44 15 5 -7 11 -94 15 -193 4
-99 10 -229 14 -289 l8 -109 -39 7 c-21 4 -50 11 -64 17 -14 5 -77 13 -140 17
l-115 7 -3 52 -3 52 -277 -2 -277 -2 -3 -232 c-1 -128 -6 -233 -11 -233 -23 0
-110 -219 -111 -277 0 -18 -4 -33 -10 -33 -7 0 -10 261 -10 764 l0 765 -87
-46 c-49 -24 -92 -48 -98 -53 -5 -4 -64 -35 -131 -69 -67 -34 -130 -71 -142
-81 -12 -11 -26 -20 -33 -20 -10 0 -172 -84 -398 -207 -53 -29 -111 -60 -128
-70 l-33 -17 0 -244 0 -243 23 7 c12 3 42 18 67 32 25 14 83 46 130 70 47 25
116 63 154 84 37 21 79 41 92 44 l24 6 -4 -268 c-2 -148 -1 -505 3 -792 l6
-524 45 -25 c25 -14 77 -43 115 -65 39 -22 94 -53 123 -69 28 -16 70 -40 92
-54 22 -14 42 -25 46 -25 3 0 33 -16 65 -35 33 -19 62 -35 65 -35 2 0 4 216 4
480 0 276 4 480 9 480 5 0 11 -17 14 -37 9 -67 23 -108 71 -203 l46 -94 0
-357 0 -358 28 -14 c15 -8 56 -31 92 -52 36 -20 74 -37 85 -37 16 0 197 94
255 132 8 5 34 19 57 31 l42 21 3 151 3 152 65 -1 65 -1 2 -104 c1 -57 2 -108
3 -112 0 -5 26 6 58 24 31 18 84 46 117 63 33 16 71 38 84 48 34 26 53 22 78
-17 l22 -35 -62 -31 c-60 -30 -116 -59 -282 -149 -44 -24 -96 -52 -115 -62
-19 -10 -42 -23 -50 -28 -14 -9 -236 -129 -292 -157 l-28 -14 0 -341 0 -340
33 20 c58 36 281 164 342 197 33 18 184 103 335 190 151 87 295 169 320 183
25 14 68 39 95 57 28 17 101 60 163 95 124 70 152 98 152 157 0 40 -16 68
-120 205 -19 26 -71 97 -115 158 -44 61 -101 140 -127 175 -51 68 -61 112 -34
150 94 136 161 385 135 506 -6 28 -9 59 -6 70 3 10 -8 56 -23 101 -71 207
-192 349 -385 454 -39 21 -39 22 -42 85 -7 191 -34 609 -40 609 -2 0 -80 -48
-174 -107 -395 -249 -407 -256 -421 -247 -5 3 -8 18 -5 33 3 14 1 49 -3 76 -5
28 -19 127 -31 220 -12 94 -23 175 -25 182 -3 12 -53 46 -126 87 -138 79 -149
87 -143 106 6 19 1 20 -69 20 -42 0 -76 -2 -76 -4z m670 -951 c0 -28 -4 -35
-19 -35 -11 0 -23 -4 -26 -10 -3 -5 -17 -10 -30 -10 -64 0 -233 -92 -324 -175
-32 -30 -61 -55 -65 -55 -8 0 -8 305 1 313 3 4 109 7 235 7 l228 0 0 -35z
m290 -186 c19 -7 58 -21 87 -31 l51 -20 6 -101 c9 -164 17 -227 28 -227 7 0 8
50 3 150 -5 112 -4 150 4 150 7 0 51 -39 99 -87 68 -69 96 -105 125 -166 21
-43 35 -82 32 -87 -4 -6 -111 -10 -271 -10 l-264 0 0 -392 c0 -216 -4 -399 -9
-406 -5 -9 -26 -12 -67 -10 l-59 3 -3 629 -2 629 102 -6 c57 -3 119 -12 138
-18z m-290 -609 l0 -610 -22 0 c-25 0 -103 28 -161 59 -83 43 -198 167 -250
270 l-32 64 0 216 c0 241 0 239 78 356 65 98 107 136 232 206 37 20 112 46
143 48 9 1 12 -127 12 -609z m698 -68 l2 -203 -44 -67 c-54 -81 -66 -95 -136
-153 -98 -82 -270 -150 -284 -113 -10 27 -7 691 4 719 l10 25 222 -2 223 -3 3
-203z m-1006 -569 c41 -30 161 -91 190 -97 7 -2 20 -6 28 -9 8 -3 32 -8 53
-12 l38 -6 -3 -145 -3 -145 -60 -34 c-33 -19 -100 -55 -148 -80 l-89 -46 -40
16 c-23 9 -60 29 -84 46 l-43 29 0 297 c0 163 2 301 5 305 3 5 30 -13 59 -39
29 -26 72 -62 97 -80z m743 -123 c18 -19 25 -34 19 -39 -24 -23 -198 -112
-210 -107 -16 6 -18 113 -2 133 5 7 30 15 54 19 24 3 47 10 50 15 12 20 61 8
89 -21z"/>
<path d="M290 1841 c0 -291 1 -310 20 -333 10 -14 70 -53 132 -88 202 -113
368 -208 383 -220 9 -7 72 -42 192 -105 23 -13 54 -32 70 -42 15 -11 48 -31
73 -44 25 -13 92 -51 150 -84 58 -33 128 -71 155 -84 28 -13 59 -32 70 -41 11
-9 79 -50 150 -90 72 -40 182 -103 245 -140 63 -37 166 -96 229 -131 62 -35
134 -76 160 -91 25 -15 53 -31 61 -35 8 -4 48 -26 87 -50 l73 -43 0 339 0 339
-67 38 c-38 20 -86 47 -108 59 -22 12 -73 41 -113 63 -41 23 -76 42 -78 42 -2
0 -23 12 -45 26 -35 22 -178 102 -274 154 -16 9 -41 23 -55 32 -14 8 -52 30
-85 48 -33 18 -82 45 -110 60 -176 97 -272 151 -285 159 -8 6 -51 30 -95 54
-44 25 -98 55 -120 67 -22 13 -65 36 -95 53 -30 17 -66 38 -80 47 -24 17 -345
199 -485 275 -38 21 -83 47 -100 57 -57 34 -55 44 -55 -291z"/>
</g>
</svg>
