<svg xmlns="http://www.w3.org/2000/svg" width="70.81" height="64.91" viewBox="0 0 70.81 64.91">
  <g id="Group_7703" data-name="Group 7703" transform="translate(12302 -66)">
    <g id="Group_7630" data-name="Group 7630" transform="translate(-12302 88.722)">
      <path id="Path_5231" data-name="Path 5231" d="M51.493,51.889a5.886,5.886,0,0,1-1.5-.195L4.366,39.477A5.955,5.955,0,0,1,.194,32.248L5.95,10.793a1.475,1.475,0,0,1,2.85.761L3.047,33A2.994,2.994,0,0,0,5.142,36.63L50.747,48.842a2.937,2.937,0,0,0,3.591-2.077l2.3-8.539a1.476,1.476,0,1,1,2.85.767l-2.3,8.527a5.893,5.893,0,0,1-5.7,4.37Z" transform="translate(0 -9.701)" fill="#d2d1d6"/>
    </g>
    <g id="Group_7631" data-name="Group 7631" transform="translate(-12290.199 66)">
      <path id="Path_5232" data-name="Path 5232" d="M57.108,49.207H9.9a5.907,5.907,0,0,1-5.9-5.9V7.9A5.907,5.907,0,0,1,9.9,2H57.108a5.907,5.907,0,0,1,5.9,5.9V43.306A5.907,5.907,0,0,1,57.108,49.207ZM9.9,4.95A2.955,2.955,0,0,0,6.95,7.9V43.306a2.955,2.955,0,0,0,2.95,2.95H57.108a2.955,2.955,0,0,0,2.95-2.95V7.9a2.955,2.955,0,0,0-2.95-2.95Z" transform="translate(-4 -2)" fill="#d2d1d6"/>
    </g>
    <path id="Path_6022" data-name="Path 6022" d="M5.008-14H2.388A1.151,1.151,0,0,0,1.2-12.812v7.859A1.087,1.087,0,0,0,2.288-3.865,1.082,1.082,0,0,0,3.347-4.953V-7.458H5.008c2.233,0,3.679-1.446,3.679-3.25A3.389,3.389,0,0,0,5.008-14ZM4.893-9.29H3.347v-2.877H4.893c.945,0,1.7.344,1.7,1.46S5.838-9.29,4.893-9.29ZM13.325-14h-2.09a1.151,1.151,0,0,0-1.188,1.188v7.644a1.151,1.151,0,0,0,1.188,1.188h2.09a4.841,4.841,0,0,0,5.153-5.068A4.813,4.813,0,0,0,13.325-14Zm0,8.2H12.194v-6.385h1.131c1.89,0,2.992.93,2.992,3.135C16.317-6.728,15.215-5.8,13.325-5.8ZM26.681-13.07a.941.941,0,0,0-.945-.93H21.1a1.151,1.151,0,0,0-1.188,1.188v7.845A1.119,1.119,0,0,0,21-3.865a1.094,1.094,0,0,0,1.059-1.1V-7.816h3.006a.93.93,0,0,0,.959-.9.941.941,0,0,0-.959-.916H22.057v-2.491h3.679A.944.944,0,0,0,26.681-13.07Z" transform="translate(-12274.635 112.516)" fill="#d2d1d6"/>
    <path id="Path_6023" data-name="Path 6023" d="M34.111,35.575a1.208,1.208,0,0,0-.353-.607h0c-.48-.473-1.543-.725-3.162-.745a26.337,26.337,0,0,0-3.8.279,9.661,9.661,0,0,1-1.763-1.217,12.873,12.873,0,0,1-3.184-4.943c.047-.179.083-.338.122-.5a32,32,0,0,0,.561-5.79,1.679,1.679,0,0,0-.1-.416l-.066-.169a1.368,1.368,0,0,0-1.252-.955l-.387-.012a1.413,1.413,0,0,0-1.443.906c-.46,1.7.017,4.25.879,7.549l-.22.536c-.62,1.509-1.394,3.025-2.077,4.367l-.088.174c-.72,1.408-1.372,2.6-1.962,3.615l-.61.323c-.044.024-1.09.578-1.337.725-2.082,1.244-3.463,2.657-3.691,3.777a.924.924,0,0,0,.353,1.026l.59.3a1.8,1.8,0,0,0,.8.193c1.484,0,3.206-1.849,5.579-5.991a55.6,55.6,0,0,1,8.592-2.043,14.791,14.791,0,0,0,6.263,1.989,2.887,2.887,0,0,0,.735-.081,1.265,1.265,0,0,0,.732-.5A2.667,2.667,0,0,0,34.111,35.575ZM11.592,42.864a10.337,10.337,0,0,1,2.927-3.5c.1-.081.343-.311.571-.524C13.432,41.483,12.322,42.534,11.592,42.864Zm9.381-21.6c.478,0,.749,1.2.772,2.329a4.767,4.767,0,0,1-.568,2.5,12.184,12.184,0,0,1-.4-3.125S20.753,21.264,20.973,21.264Zm-2.8,15.394h0c.331-.6.678-1.222,1.031-1.886a35.988,35.988,0,0,0,1.81-3.951,13.032,13.032,0,0,0,2.988,3.711c.147.125.3.25.465.375A38.092,38.092,0,0,0,18.176,36.658Zm15.117-.135h0a2.157,2.157,0,0,1-.833.142,9.785,9.785,0,0,1-3.449-1.043c.58-.042,1.11-.066,1.585-.066a6.093,6.093,0,0,1,1.981.216C33.43,35.989,33.44,36.43,33.293,36.523Z" transform="translate(-12282.582 50.5)" fill="#d2d1d6"/>
    <path id="Path_6023_-_Outline" data-name="Path 6023 - Outline" d="M11.921,44.141a1.947,1.947,0,0,1-.87-.209l-.6-.3a1.068,1.068,0,0,1-.426-1.187c.236-1.16,1.642-2.609,3.761-3.875.2-.119.905-.495,1.207-.655l.135-.072.575-.3c.611-1.052,1.262-2.253,1.936-3.571l.116-.229c.673-1.321,1.435-2.818,2.044-4.3l.2-.49c-.86-3.3-1.334-5.848-.866-7.577a1.56,1.56,0,0,1,1.587-1.017l.386.012h.054A1.513,1.513,0,0,1,22.5,21.408l0,.005.068.175a1.83,1.83,0,0,1,.1.445,31.437,31.437,0,0,1-.562,5.836l0,.009-.031.129c-.025.1-.051.212-.08.327a12.717,12.717,0,0,0,3.129,4.841,9.319,9.319,0,0,0,1.692,1.171,26.382,26.382,0,0,1,3.775-.274,5.2,5.2,0,0,1,3.22.745h0l.046.043a1.369,1.369,0,0,1,.4.694,2.789,2.789,0,0,1-.312,1.893,1.418,1.418,0,0,1-.819.562,3.035,3.035,0,0,1-.774.086,14.959,14.959,0,0,1-6.291-1.983A55.622,55.622,0,0,0,17.6,38.125C15.212,42.285,13.459,44.141,11.921,44.141ZM10.6,43.367l.587.3a1.649,1.649,0,0,0,.736.177c1.424,0,3.1-1.824,5.449-5.916l.029-.05.055-.018a55.872,55.872,0,0,1,8.616-2.048l.051-.008.045.025a14.675,14.675,0,0,0,6.189,1.97,2.741,2.741,0,0,0,.7-.076,1.118,1.118,0,0,0,.647-.439,2.571,2.571,0,0,0,.265-1.687,1.041,1.041,0,0,0-.282-.492l-.03-.028c-.447-.44-1.5-.683-3.059-.7a26.213,26.213,0,0,0-3.781.278l-.051.007-.045-.026a9.767,9.767,0,0,1-1.791-1.238,13.034,13.034,0,0,1-3.222-5l-.016-.044L21.7,28.3c.034-.13.063-.25.091-.367l.03-.125a31.833,31.833,0,0,0,.559-5.739,1.537,1.537,0,0,0-.09-.385l-.064-.164a1.239,1.239,0,0,0-1.106-.863h-.006l-.393-.012a1.265,1.265,0,0,0-1.293.8c-.453,1.673.024,4.2.88,7.47l.013.049-.24.583c-.614,1.494-1.379,3-2.054,4.323l-.116.229c-.685,1.339-1.346,2.558-1.966,3.623l-.022.037-.648.343-.137.073c-.3.16-1,.533-1.194.648-2.047,1.224-3.4,2.6-3.621,3.678A.783.783,0,0,0,10.6,43.367Zm.73-.218.124-.336a10.472,10.472,0,0,1,2.973-3.564c.086-.071.3-.27.505-.464l.058-.054.23.189c-1.435,2.287-2.634,3.66-3.563,4.081ZM14.35,39.7a11.6,11.6,0,0,0-2.412,2.785A11.026,11.026,0,0,0,14.35,39.7Zm3.495-2.757.2-.361c.3-.534.666-1.2,1.03-1.884a35.98,35.98,0,0,0,1.8-3.934l.116-.3.155.283A12.9,12.9,0,0,0,24.1,34.417c.154.131.3.251.459.37l.265.2-.327.065A37.816,37.816,0,0,0,18.23,36.8Zm3.2-5.775a36.573,36.573,0,0,1-1.7,3.671c-.288.542-.579,1.07-.835,1.532a38.343,38.343,0,0,1,5.617-1.55c-.071-.058-.142-.116-.214-.177A13.1,13.1,0,0,1,21.042,31.171ZM32.46,36.815a9.858,9.858,0,0,1-3.508-1.056L29,35.472c.624-.045,1.146-.067,1.6-.067h.057a6.09,6.09,0,0,1,1.962.22c.74.189.872.537.894.678a.34.34,0,0,1-.136.346A2.245,2.245,0,0,1,32.46,36.815Zm-2.8-1.083a7.972,7.972,0,0,0,2.8.783,2.14,2.14,0,0,0,.749-.117.105.105,0,0,0,0-.077c-.021-.06-.13-.268-.665-.4a5.8,5.8,0,0,0-1.888-.211H30.6C30.316,35.706,30.006,35.714,29.659,35.732Zm-8.521-9.259-.1-.332a12.262,12.262,0,0,1-.409-3.17,4.383,4.383,0,0,1,.2-1.794.2.2,0,0,1,.144-.063c.689,0,.9,1.557.921,2.476a4.938,4.938,0,0,1-.587,2.579Zm-.111-5.048a7.277,7.277,0,0,0-.1,1.544,13.212,13.212,0,0,0,.294,2.708,4.839,4.839,0,0,0,.376-2.081C21.571,22.393,21.287,21.531,21.027,21.425Z" transform="translate(-12282.582 50.5)" fill="#d2d1d6"/>
  </g>
</svg>
