<svg width="132" height="40" viewBox="0 0 132 40" fill="none" xmlns="http://www.w3.org/2000/svg">
<g clip-path="url(#clip0_1564_122622)">
<path d="M49.0191 20.38H45.5372C44.2708 20.38 44.0602 19.4721 44.0602 19.0499C44.0602 18.6278 44.2656 17.7208 45.5372 17.7208H51.6999C53.1995 17.7208 53.4521 18.7972 53.4521 19.3036C53.4521 19.7679 53.2406 20.3379 52.7137 20.8648L48.1553 25.5505H52.1857C53.4522 25.5505 53.6627 26.4575 53.6627 26.9012C53.6627 27.3233 53.4522 28.2303 52.1857 28.2303H45.7067C44.1455 28.2303 43.8712 27.1117 43.8712 26.5869C43.8712 26.1021 44.0612 25.5536 44.5902 25.0041L49.0191 20.38Z" fill="#3F85F3"/>
<path d="M54.9908 22.9755C54.9908 19.5563 57.5873 17.3829 60.8587 17.3829C61.702 17.3829 62.5678 17.5513 63.18 17.8472C63.9822 18.2272 64.1927 18.7972 64.1927 19.2399C64.1927 20.0421 63.7079 20.7385 62.7784 20.7385C62.4545 20.728 62.1378 20.6411 61.854 20.4848C61.5671 20.3418 61.2501 20.2695 60.9296 20.2742C59.4741 20.2742 58.5025 21.5191 58.5025 22.9755C58.5025 24.432 59.4526 25.6553 60.9676 25.6553C61.2881 25.6678 61.6069 25.603 61.8971 25.4663C62.1808 25.3098 62.4976 25.2228 62.8215 25.2126C63.7459 25.2126 64.2359 25.909 64.2359 26.7112C64.2359 27.1539 63.9832 27.7239 63.2231 28.1039C62.5904 28.4203 61.7246 28.5682 60.8803 28.5682C57.5658 28.5682 54.9908 26.4575 54.9908 22.9755Z" fill="#003B71"/>
<path d="M71.4318 28.5682C68.2652 28.5682 65.6071 26.3733 65.6071 22.9334C65.6071 19.4936 68.2652 17.387 71.4318 17.387C74.6159 17.387 77.2771 19.4977 77.2771 22.9334C77.2771 26.3692 74.6179 28.5682 71.4318 28.5682ZM71.4318 20.2486C69.8059 20.2486 68.9616 21.5787 68.9616 22.9293C68.9616 24.28 69.8275 25.6512 71.4524 25.6512C73.0773 25.6512 73.9431 24.28 73.9431 22.9293C73.9431 21.5787 73.0557 20.2527 71.4318 20.2527V20.2486Z" fill="#003B71"/>
<path d="M79.5142 13.711C79.5142 12.0224 80.6953 11.7481 81.2654 11.7481C81.8354 11.7481 83.0115 12.0224 83.0115 13.711V26.479C83.0115 28.1676 81.8303 28.4419 81.2654 28.4419C80.7005 28.4419 79.5142 28.1676 79.5142 26.479V13.711Z" fill="#003B71"/>
<path d="M85.8022 13.711C85.8022 12.0224 86.9844 11.7481 87.5544 11.7481C88.1245 11.7481 89.3057 12.0224 89.3057 13.711V26.479C89.3057 28.1676 88.1245 28.4419 87.5544 28.4419C86.9844 28.4419 85.8022 28.1676 85.8022 26.479V13.711Z" fill="#003B71"/>
<path d="M100.452 24.8562C101.212 24.8562 101.782 25.3831 101.782 26.1637C101.777 26.3949 101.719 26.6219 101.612 26.8269C101.505 27.032 101.353 27.2096 101.166 27.3459C100.259 28.0844 98.9924 28.5703 97.3038 28.5703C94.1383 28.5703 91.5212 26.5653 91.5212 23.0238C91.5212 19.584 94.0119 17.3891 97.1981 17.3891C99.8367 17.3891 101.736 18.9297 102.305 21.4626C102.368 21.7252 102.402 21.9938 102.408 22.2638C102.408 23.446 101.711 23.9318 100.614 23.9318H94.8316C94.9343 25.0924 96.098 25.9152 97.3429 25.9152C98.145 25.9152 98.6781 25.7673 99.3478 25.2989C99.8778 24.9384 100.111 24.8562 100.452 24.8562ZM99.2913 21.7749C99.2913 20.6769 98.5949 19.7699 97.2237 19.7699C95.8936 19.7699 94.923 20.6943 94.8388 21.7749H99.2913Z" fill="#003B71"/>
<path d="M104.099 22.9755C104.099 19.5563 106.695 17.3829 109.966 17.3829C110.81 17.3829 111.675 17.5513 112.287 17.8472C113.09 18.2272 113.3 18.7972 113.3 19.2399C113.3 20.0421 112.815 20.7385 111.886 20.7385C111.562 20.7283 111.245 20.6413 110.961 20.4848C110.674 20.342 110.357 20.2698 110.037 20.2742C108.582 20.2742 107.61 21.5191 107.61 22.9755C107.61 24.432 108.56 25.6553 110.08 25.6553C110.399 25.6674 110.716 25.6026 111.005 25.4663C111.288 25.31 111.605 25.2231 111.929 25.2126C112.853 25.2126 113.342 25.909 113.342 26.7112C113.342 27.1539 113.09 27.7239 112.33 28.1039C111.696 28.4203 110.831 28.5682 109.987 28.5682C106.674 28.5682 104.099 26.4575 104.099 22.9755Z" fill="#003B71"/>
<path d="M115.601 16.6444C115.601 15.0195 116.762 14.7453 117.31 14.7453C117.837 14.7453 118.999 15.0195 118.999 16.6444V17.7208H120.222C121.446 17.7208 121.678 18.6072 121.678 19.0078C121.678 19.4299 121.446 20.3163 120.222 20.3163H118.999V24.3221C118.999 25.2927 119.273 25.7601 120.033 25.7601H120.307C121.172 25.7601 121.594 26.4143 121.594 27.0049C121.594 28.1029 120.602 28.4829 119.357 28.4829C116.55 28.4829 115.621 26.9844 115.621 24.7473V20.3163H115.179C113.954 20.3163 113.722 19.4299 113.722 19.0078C113.722 18.6072 113.954 17.7208 115.179 17.7208H115.601V16.6444Z" fill="#003B71"/>
<path d="M38.8917 28.6165L38.5641 29.1855C38.5104 29.2785 38.4334 29.3558 38.3406 29.4099C38.2478 29.4639 38.1425 29.4928 38.0351 29.4936H19.6724C19.565 29.4933 19.4596 29.4647 19.3669 29.4106C19.2742 29.3565 19.1975 29.2788 19.1444 29.1855L9.8747 13.2313C9.82096 13.1384 9.79266 13.033 9.79266 12.9257C9.79266 12.8184 9.82096 12.713 9.8747 12.6202L10.2013 12.0532C10.255 11.9602 10.3321 11.8828 10.4248 11.8288C10.5176 11.7748 10.6229 11.7459 10.7303 11.7451H20.5372C20.7204 11.7452 20.9003 11.7933 21.0591 11.8847C21.2179 11.9761 21.3499 12.1075 21.4421 12.2658L25.3646 19.0181H33.1307C33.3148 19.018 33.4956 19.0666 33.655 19.1587C33.8144 19.2508 33.9467 19.3834 34.0386 19.5429L38.8928 28.0053C38.9467 28.0982 38.975 28.2037 38.9748 28.311C38.9746 28.4184 38.9459 28.5238 38.8917 28.6165Z" fill="#3F85F3"/>
<path d="M33.6237 16.9556L33.3237 17.4692C33.2698 17.5626 33.1923 17.6403 33.0989 17.6944C33.0055 17.7484 32.8996 17.777 32.7917 17.7773H26.0795L25.9018 17.4692L25.7816 17.2638L22.6921 11.9443C22.638 11.8507 22.6095 11.7444 22.6095 11.6362C22.6095 11.528 22.638 11.4218 22.6921 11.3281L22.9899 10.8145C23.044 10.7209 23.1217 10.6432 23.2152 10.5891C23.3088 10.535 23.4149 10.5065 23.523 10.5064H29.923C30.031 10.5065 30.1372 10.535 30.2307 10.5891C30.3243 10.6432 30.402 10.7209 30.456 10.8145L33.6257 16.3373C33.6799 16.4314 33.7082 16.5382 33.7078 16.6468C33.7075 16.7553 33.6784 16.8619 33.6237 16.9556Z" fill="#003B71"/>
</g>
<defs>
<clipPath id="clip0_1564_122622">
<rect width="131.471" height="40" fill="white"/>
</clipPath>
</defs>
</svg>
