<svg width="106" height="32" viewBox="0 0 106 32" fill="none" xmlns="http://www.w3.org/2000/svg">
<path d="M39.2153 16.304H36.4297C35.4166 16.304 35.2481 15.5776 35.2481 15.2399C35.2481 14.9022 35.4125 14.1766 36.4297 14.1766H41.3599C42.5596 14.1766 42.7617 15.0378 42.7617 15.4429C42.7617 15.8143 42.5924 16.2703 42.1709 16.6918L38.5242 20.4404H41.7486C42.7617 20.4404 42.9302 21.166 42.9302 21.5209C42.9302 21.8586 42.7617 22.5842 41.7486 22.5842H36.5653C35.3163 22.5842 35.097 21.6894 35.097 21.2695C35.097 20.8816 35.249 20.4429 35.6721 20.0033L39.2153 16.304Z" fill="black"/>
<path d="M43.9926 18.3804C43.9926 15.645 46.0699 13.9063 48.6869 13.9063C49.3616 13.9063 50.0542 14.0411 50.544 14.2777C51.1857 14.5817 51.3542 15.0378 51.3542 15.3919C51.3542 16.0337 50.9663 16.5908 50.2227 16.5908C49.9636 16.5824 49.7102 16.5128 49.4832 16.3878C49.2537 16.2734 49.0001 16.2156 48.7436 16.2194C47.5793 16.2194 46.802 17.2153 46.802 18.3804C46.802 19.5456 47.562 20.5242 48.774 20.5242C49.0305 20.5343 49.2855 20.4824 49.5177 20.373C49.7446 20.2478 49.9981 20.1782 50.2572 20.1701C50.9967 20.1701 51.3887 20.7272 51.3887 21.3689C51.3887 21.7231 51.1865 22.1791 50.5785 22.4831C50.0723 22.7362 49.3796 22.8545 48.7042 22.8545C46.0526 22.8545 43.9926 21.166 43.9926 18.3804Z" fill="black"/>
<path d="M57.1454 22.8546C54.6122 22.8546 52.4856 21.0986 52.4856 18.3467C52.4856 15.5949 54.6122 13.9096 57.1454 13.9096C59.6927 13.9096 61.8217 15.5982 61.8217 18.3467C61.8217 21.0953 59.6943 22.8546 57.1454 22.8546ZM57.1454 16.1988C55.8447 16.1988 55.1693 17.2629 55.1693 18.3435C55.1693 19.424 55.862 20.5209 57.1619 20.5209C58.4618 20.5209 59.1545 19.424 59.1545 18.3435C59.1545 17.2629 58.4445 16.2021 57.1454 16.2021V16.1988Z" fill="black"/>
<path d="M63.6113 10.9688C63.6113 9.61789 64.5563 9.3985 65.0123 9.3985C65.4684 9.3985 66.4092 9.61789 66.4092 10.9688V21.1832C66.4092 22.5341 65.4642 22.7535 65.0123 22.7535C64.5604 22.7535 63.6113 22.5341 63.6113 21.1832V10.9688Z" fill="black"/>
<path d="M68.6417 10.9688C68.6417 9.61789 69.5875 9.3985 70.0435 9.3985C70.4996 9.3985 71.4445 9.61789 71.4445 10.9688V21.1832C71.4445 22.5341 70.4996 22.7535 70.0435 22.7535C69.5875 22.7535 68.6417 22.5341 68.6417 21.1832V10.9688Z" fill="black"/>
<path d="M80.3615 19.885C80.9696 19.885 81.4256 20.3065 81.4256 20.931C81.4218 21.1159 81.3753 21.2975 81.2897 21.4615C81.2042 21.6256 81.082 21.7677 80.9326 21.8767C80.2071 22.4675 79.1939 22.8562 77.843 22.8562C75.3106 22.8562 73.2169 21.2523 73.2169 18.4191C73.2169 15.6672 75.2095 13.9113 77.7584 13.9113C79.8693 13.9113 81.3887 15.1438 81.8439 17.1701C81.8941 17.3802 81.9216 17.595 81.926 17.811C81.926 18.7568 81.3689 19.1454 80.4914 19.1454H75.8652C75.9474 20.0739 76.8784 20.7321 77.8743 20.7321C78.516 20.7321 78.9425 20.6138 79.4782 20.2391C79.9022 19.9507 80.0887 19.885 80.3615 19.885ZM79.433 17.4199C79.433 16.5415 78.8759 15.8159 77.779 15.8159C76.7149 15.8159 75.9384 16.5555 75.871 17.4199H79.433Z" fill="black"/>
<path d="M83.2794 18.3804C83.2794 15.645 85.3558 13.9063 87.9729 13.9063C88.6483 13.9063 89.3402 14.0411 89.8299 14.2777C90.4716 14.5817 90.6401 15.0378 90.6401 15.3919C90.6401 16.0337 90.2522 16.5908 89.5086 16.5908C89.2495 16.5826 88.9961 16.5131 88.7691 16.3878C88.5395 16.2736 88.286 16.2159 88.0296 16.2194C86.8652 16.2194 86.0879 17.2153 86.0879 18.3804C86.0879 19.5456 86.848 20.5242 88.0641 20.5242C88.3191 20.5339 88.5728 20.482 88.8036 20.373C89.0306 20.248 89.2841 20.1785 89.5431 20.1701C90.2826 20.1701 90.6738 20.7272 90.6738 21.3689C90.6738 21.7231 90.4716 22.1791 89.8636 22.4831C89.3566 22.7362 88.6647 22.8545 87.9893 22.8545C85.3393 22.8545 83.2794 21.166 83.2794 18.3804Z" fill="black"/>
<path d="M92.4807 13.3155C92.4807 12.0156 93.4092 11.7962 93.848 11.7962C94.2695 11.7962 95.1988 12.0156 95.1988 13.3155V14.1766H96.1775C97.1569 14.1766 97.3427 14.8858 97.3427 15.2062C97.3427 15.5439 97.1569 16.2531 96.1775 16.2531H95.1988V19.4577C95.1988 20.2342 95.4182 20.608 96.0263 20.608H96.2457C96.9376 20.608 97.2753 21.1315 97.2753 21.6039C97.2753 22.4823 96.4815 22.7863 95.4856 22.7863C93.2399 22.7863 92.4971 21.5875 92.4971 19.7978V16.2531H92.143C91.1635 16.2531 90.9778 15.5439 90.9778 15.2062C90.9778 14.8858 91.1635 14.1766 92.143 14.1766H92.4807V13.3155Z" fill="black"/>
<path d="M31.1134 22.8932L30.8513 23.3484C30.8083 23.4228 30.7467 23.4847 30.6725 23.5279C30.5982 23.5711 30.514 23.5942 30.4281 23.5949H15.7379C15.652 23.5947 15.5677 23.5718 15.4936 23.5285C15.4194 23.4852 15.358 23.4231 15.3155 23.3484L7.89977 10.585C7.85677 10.5108 7.83414 10.4264 7.83414 10.3406C7.83414 10.2548 7.85677 10.1704 7.89977 10.0961L8.16106 9.64256C8.20401 9.56817 8.26565 9.50629 8.33988 9.46305C8.4141 9.41981 8.49834 9.39672 8.58424 9.39606H16.4298C16.5763 9.39614 16.7203 9.43466 16.8473 9.50776C16.9743 9.58086 17.08 9.68599 17.1537 9.81266L20.2917 15.2145H26.5045C26.6518 15.2145 26.7965 15.2533 26.924 15.327C27.0516 15.4007 27.1574 15.5067 27.2309 15.6343L31.1142 22.4043C31.1573 22.4786 31.18 22.5629 31.1798 22.6488C31.1797 22.7347 31.1568 22.819 31.1134 22.8932Z" fill="black"/>
<path d="M26.8989 13.5645L26.659 13.9753C26.6158 14.0501 26.5538 14.1122 26.4791 14.1555C26.4044 14.1987 26.3197 14.2216 26.2334 14.2219H20.8636L20.7215 13.9753L20.6253 13.811L18.1537 9.55546C18.1104 9.48051 18.0876 9.39549 18.0876 9.30895C18.0876 9.22241 18.1104 9.13739 18.1537 9.06244L18.392 8.6516C18.4352 8.57672 18.4973 8.51453 18.5722 8.47127C18.647 8.428 18.732 8.40518 18.8184 8.40509H23.9384C24.0248 8.40518 24.1098 8.428 24.1846 8.47127C24.2595 8.51453 24.3216 8.57672 24.3648 8.6516L26.9006 13.0698C26.9439 13.1451 26.9666 13.2305 26.9663 13.3174C26.966 13.4043 26.9428 13.4895 26.8989 13.5645Z" fill="black"/>
</svg>
