<svg width="116" height="22" viewBox="0 0 116 22" fill="none" xmlns="http://www.w3.org/2000/svg">
<path d="M15.459 15.4775L16.8066 15.7998L15.5762 21H1.60156L0.722656 18.7881L13.4814 2.20605L4.16504 2.95312L2.6709 6.20508L1.2207 5.83887L2.01172 0.580078L3.88672 0.726562H16.0449L16.6602 2.52832L3.85742 19.3008L13.6279 18.6562L15.459 15.4775ZM21.7139 18.9639V2.74805L18.9746 1.92773L19.2236 0.726562H25.6543C27.2461 0.726562 28.7109 0.848633 30.0488 1.09277C31.3867 1.33691 32.5488 1.79102 33.5352 2.45508C34.873 3.36328 35.8545 4.51563 36.4795 5.91211C37.1143 7.30859 37.4316 8.90039 37.4316 10.6875C37.4316 12.1426 37.2217 13.5342 36.8018 14.8623C36.3916 16.1904 35.7373 17.3281 34.8389 18.2754C34.0381 19.1055 33.0859 19.7207 31.9824 20.1211C30.8789 20.5117 29.7559 20.7559 28.6133 20.8535C27.4707 20.9512 26.0938 21 24.4824 21H18.9014L19.1504 19.7549L21.7139 18.9639ZM24.5264 19.7256C26.9092 19.4229 28.8086 18.9639 30.2246 18.3486C31.6406 17.7236 32.6904 16.8154 33.374 15.624C34.0674 14.4229 34.4141 12.8115 34.4141 10.79C34.4141 7.57715 33.2129 5.21875 30.8105 3.71484C30.127 3.28516 29.2236 2.91895 28.1006 2.61621C26.9873 2.31348 25.7959 2.08887 24.5264 1.94238V19.7256ZM42.6465 18.9492V2.74805L39.8926 1.94238L40.1416 0.726562H48.3447L48.1104 1.97168L45.459 2.77734V18.9492L48.2861 19.7695L47.9932 21H39.79L40.0391 19.7256L42.6465 18.9492ZM58.7158 11.874C58.7158 9.77441 59.082 7.84082 59.8145 6.07324C60.5566 4.2959 61.6455 2.875 63.0811 1.81055C64.5264 0.746094 66.2598 0.213867 68.2812 0.213867C69.8047 0.213867 71.2061 0.604492 72.4854 1.38574C73.7646 2.15723 74.7803 3.27539 75.5322 4.74023C76.2939 6.19531 76.6748 7.89453 76.6748 9.83789C76.6748 11.9473 76.2939 13.8955 75.5322 15.6826C74.7803 17.46 73.6914 18.876 72.2656 19.9307C70.8398 20.9854 69.165 21.5127 67.2412 21.5127C65.6396 21.5127 64.1895 21.127 62.8906 20.3555C61.6016 19.5742 60.5811 18.4561 59.8291 17.001C59.0869 15.5459 58.7158 13.8369 58.7158 11.874ZM63.4619 16.7666C64.0576 17.5186 64.8047 18.1143 65.7031 18.5537C66.6016 18.9834 67.5439 19.1982 68.5303 19.1982C69.2041 19.1982 69.8486 19.0957 70.4639 18.8906C71.0889 18.6758 71.6162 18.3389 72.0459 17.8799C72.5732 17.3135 72.9736 16.4443 73.2471 15.2725C73.5303 14.1006 73.6719 13.002 73.6719 11.9766C73.6719 10.7656 73.6182 9.74512 73.5107 8.91504C73.4131 8.0752 73.2178 7.30859 72.9248 6.61523C72.583 5.80469 72.0996 5.0918 71.4746 4.47656C70.8594 3.86133 70.1562 3.38281 69.3652 3.04102C68.5742 2.69922 67.7637 2.52832 66.9336 2.52832C66.2891 2.52832 65.6494 2.63086 65.0146 2.83594C64.3896 3.04102 63.8574 3.35352 63.418 3.77344C63.0371 4.14453 62.7197 4.68652 62.4658 5.39941C62.2119 6.10254 62.0215 6.84961 61.8945 7.64062C61.7773 8.43164 61.7188 9.14941 61.7188 9.79395C61.7188 11.2588 61.8408 12.5771 62.085 13.749C62.3291 14.9209 62.7881 15.9268 63.4619 16.7666ZM88.4082 21.5127C86.6602 21.5127 85.1221 21.1221 83.7939 20.3408C82.4756 19.5596 81.4502 18.4414 80.7178 16.9863C79.9854 15.5312 79.6191 13.8174 79.6191 11.8447C79.6191 9.74512 79.9609 7.82617 80.6445 6.08789C81.3281 4.33984 82.3193 2.96289 83.6182 1.95703C84.4092 1.35156 85.2588 0.912109 86.167 0.638672C87.0752 0.355469 88.0908 0.213867 89.2139 0.213867C89.7021 0.213867 90.2002 0.248047 90.708 0.316406C91.2158 0.384766 91.7871 0.482422 92.4219 0.609375L94.2969 0.345703L94.8535 5.70703L93.4473 6.04395L92.0703 2.99707C91.4355 2.72363 90.835 2.52344 90.2686 2.39648C89.7119 2.26953 89.0527 2.20605 88.291 2.20605C87.5781 2.20605 86.8945 2.31836 86.2402 2.54297C85.5957 2.75781 85.0879 3.02637 84.7168 3.34863C84.0723 3.9248 83.5449 4.83301 83.1348 6.07324C82.7344 7.31348 82.5342 8.84668 82.5342 10.6729C82.5342 11.7861 82.6855 12.8848 82.9883 13.9688C83.3008 15.043 83.7402 15.9512 84.3066 16.6934C84.9512 17.5332 85.6885 18.1533 86.5186 18.5537C87.3486 18.9541 88.2275 19.1543 89.1553 19.1543C89.624 19.1543 90.2539 19.0469 91.0449 18.832C91.8359 18.6074 92.6074 18.3584 93.3594 18.085C94.1113 17.8115 94.6338 17.6016 94.9268 17.4551L95.5859 18.4658C94.4727 19.5303 93.3691 20.3066 92.2754 20.7949C91.1914 21.2734 89.9023 21.5127 88.4082 21.5127ZM100.127 18.9639V2.74805L97.3877 1.92773L97.6367 0.726562H103.042C104.116 0.726562 105.039 0.755859 105.811 0.814453C106.582 0.863281 107.358 0.990234 108.14 1.19531C108.931 1.40039 109.658 1.72266 110.322 2.16211C110.957 2.58203 111.46 3.13867 111.831 3.83203C112.202 4.52539 112.388 5.2627 112.388 6.04395C112.388 8.63184 110.908 10.3457 107.949 11.1855L112.49 18.832L115.347 19.8135L115.068 21H109.561L109.78 19.8721L104.902 10.9658C106.191 10.4873 107.158 9.98926 107.803 9.47168C108.457 8.9541 108.882 8.43164 109.077 7.9043C109.282 7.37695 109.385 6.75195 109.385 6.0293C109.385 5.10156 109.067 4.33984 108.433 3.74414C107.798 3.13867 106.992 2.69434 106.016 2.41113C105.049 2.11816 104.023 1.94727 102.939 1.89844V18.7881L105.957 19.5938L105.649 21H97.2852L97.4902 19.7695L100.127 18.9639Z" fill="white"/>
<path d="M15.459 15.4775L15.6916 14.505L14.9652 14.3313L14.5925 14.9784L15.459 15.4775ZM16.8066 15.7998L17.7798 16.0301L18.0095 15.0592L17.0392 14.8272L16.8066 15.7998ZM15.5762 21V22H16.3672L16.5493 21.2303L15.5762 21ZM1.60156 21L0.672239 21.3693L0.922862 22H1.60156V21ZM0.722656 18.7881L-0.0698897 18.1783L-0.416638 18.6289L-0.206667 19.1574L0.722656 18.7881ZM13.4814 2.20605L14.274 2.81587L15.6488 1.02904L13.4015 1.20925L13.4814 2.20605ZM4.16504 2.95312L4.08511 1.95632L3.50101 2.00316L3.25636 2.53562L4.16504 2.95312ZM2.6709 6.20508L2.42606 7.17464L3.23237 7.37826L3.57958 6.62258L2.6709 6.20508ZM1.2207 5.83887L0.231827 5.69012L0.0969971 6.58649L0.975864 6.80843L1.2207 5.83887ZM2.01172 0.580078L2.08961 -0.416884L1.16134 -0.489405L1.02284 0.431334L2.01172 0.580078ZM3.88672 0.726562L3.80883 1.72352L3.84772 1.72656H3.88672V0.726562ZM16.0449 0.726562L16.9913 0.403419L16.7602 -0.273438H16.0449V0.726562ZM16.6602 2.52832L17.455 3.13507L17.7791 2.71057L17.6065 2.20518L16.6602 2.52832ZM3.85742 19.3008L3.06253 18.694L1.72714 20.4435L3.92325 20.2986L3.85742 19.3008ZM13.6279 18.6562L13.6938 19.6541L14.2275 19.6189L14.4944 19.1554L13.6279 18.6562ZM15.2264 16.4501L16.5741 16.7724L17.0392 14.8272L15.6916 14.505L15.2264 16.4501ZM15.8335 15.5695L14.603 20.7697L16.5493 21.2303L17.7798 16.0301L15.8335 15.5695ZM15.5762 20H1.60156V22H15.5762V20ZM2.53089 20.6307L1.65198 18.4188L-0.206667 19.1574L0.672239 21.3693L2.53089 20.6307ZM1.5152 19.3979L14.274 2.81587L12.6889 1.59624L-0.0698897 18.1783L1.5152 19.3979ZM13.4015 1.20925L4.08511 1.95632L4.24497 3.94993L13.5614 3.20285L13.4015 1.20925ZM3.25636 2.53562L1.76222 5.78758L3.57958 6.62258L5.07372 3.37063L3.25636 2.53562ZM2.91574 5.23551L1.46554 4.8693L0.975864 6.80843L2.42606 7.17464L2.91574 5.23551ZM2.20958 5.98761L3.00059 0.728823L1.02284 0.431334L0.231827 5.69012L2.20958 5.98761ZM1.93383 1.57704L3.80883 1.72352L3.96461 -0.2704L2.08961 -0.416884L1.93383 1.57704ZM3.88672 1.72656H16.0449V-0.273438H3.88672V1.72656ZM15.0986 1.04971L15.7138 2.85146L17.6065 2.20518L16.9913 0.403419L15.0986 1.04971ZM15.8653 1.92157L3.06253 18.694L4.65231 19.9075L17.455 3.13507L15.8653 1.92157ZM3.92325 20.2986L13.6938 19.6541L13.5621 17.6584L3.7916 18.3029L3.92325 20.2986ZM14.4944 19.1554L16.3255 15.9767L14.5925 14.9784L12.7614 18.1571L14.4944 19.1554ZM21.7139 18.9639L22.0087 19.9194L22.7139 19.7018V18.9639H21.7139ZM21.7139 2.74805H22.7139V2.00364L22.0007 1.79008L21.7139 2.74805ZM18.9746 1.92773L17.9954 1.72473L17.8093 2.62264L18.6877 2.8857L18.9746 1.92773ZM19.2236 0.726562V-0.273438H18.4097L18.2445 0.523562L19.2236 0.726562ZM33.5352 2.45508L34.0968 1.6277L34.0936 1.62556L33.5352 2.45508ZM36.4795 5.91211L35.5667 6.32062L35.5691 6.32591L36.4795 5.91211ZM36.8018 14.8623L35.8483 14.5608L35.8463 14.5672L36.8018 14.8623ZM34.8389 18.2754L35.5586 18.9697L35.5644 18.9636L34.8389 18.2754ZM31.9824 20.1211L32.3161 21.0638L32.3235 21.0611L31.9824 20.1211ZM18.9014 21L17.9208 20.8039L17.6816 22H18.9014V21ZM19.1504 19.7549L18.8555 18.7993L18.2866 18.9749L18.1698 19.5588L19.1504 19.7549ZM24.5264 19.7256H23.5264V20.8607L24.6524 20.7176L24.5264 19.7256ZM30.2246 18.3486L30.6231 19.2658L30.6284 19.2635L30.2246 18.3486ZM33.374 15.624L32.508 15.1241L32.5067 15.1264L33.374 15.624ZM30.8105 3.71484L30.2784 4.56148L30.2799 4.56245L30.8105 3.71484ZM28.1006 2.61621L27.8382 3.58117L27.8403 3.58175L28.1006 2.61621ZM24.5264 1.94238L24.641 0.948974L23.5264 0.820363V1.94238H24.5264ZM22.7139 18.9639V2.74805H20.7139V18.9639H22.7139ZM22.0007 1.79008L19.2615 0.969767L18.6877 2.8857L21.427 3.70601L22.0007 1.79008ZM19.9538 2.13073L20.2028 0.929563L18.2445 0.523562L17.9954 1.72473L19.9538 2.13073ZM19.2236 1.72656H25.6543V-0.273438H19.2236V1.72656ZM25.6543 1.72656C27.1958 1.72656 28.5996 1.84484 29.8693 2.07653L30.2283 0.109019C28.8222 -0.147571 27.2964 -0.273438 25.6543 -0.273438V1.72656ZM29.8693 2.07653C31.091 2.29947 32.12 2.70782 32.9767 3.28459L34.0936 1.62556C32.9777 0.874215 31.6824 0.374363 30.2283 0.109019L29.8693 2.07653ZM32.9735 3.28245C34.1669 4.09255 35.022 5.10346 35.5667 6.32062L37.3922 5.5036C36.687 3.92779 35.5792 2.63401 34.0968 1.6277L32.9735 3.28245ZM35.5691 6.32591C36.1359 7.57272 36.4316 9.01976 36.4316 10.6875H38.4316C38.4316 8.78102 38.0927 7.04447 37.3899 5.49831L35.5691 6.32591ZM36.4316 10.6875C36.4316 12.0449 36.236 13.3345 35.8483 14.5608L37.7552 15.1638C38.2073 13.7338 38.4316 12.2403 38.4316 10.6875H36.4316ZM35.8463 14.5672C35.4785 15.7581 34.8991 16.7587 34.1133 17.5872L35.5644 18.9636C36.5755 17.8975 37.3047 16.6227 37.7572 15.1574L35.8463 14.5672ZM34.1192 17.5811C33.4262 18.2995 32.6042 18.8317 31.6413 19.1811L32.3235 21.0611C33.5677 20.6097 34.65 19.9115 35.5586 18.9697L34.1192 17.5811ZM31.6487 19.1784C30.6238 19.5412 29.5841 19.7669 28.5281 19.8571L28.6984 21.8499C29.9276 21.7448 31.1341 21.4822 32.3161 21.0638L31.6487 19.1784ZM28.5281 19.8571C27.4226 19.9516 26.0757 20 24.4824 20V22C26.1118 22 27.5188 21.9507 28.6984 21.8499L28.5281 19.8571ZM24.4824 20H18.9014V22H24.4824V20ZM19.8819 21.1961L20.131 19.951L18.1698 19.5588L17.9208 20.8039L19.8819 21.1961ZM19.4452 20.7104L22.0087 19.9194L21.419 18.0083L18.8555 18.7993L19.4452 20.7104ZM24.6524 20.7176C27.0832 20.4088 29.0861 19.9336 30.6231 19.2658L29.8261 17.4315C28.5311 17.9941 26.7352 18.4369 24.4003 18.7336L24.6524 20.7176ZM30.6284 19.2635C32.2136 18.5638 33.4384 17.5211 34.2414 16.1217L32.5067 15.1264C31.9424 16.1097 31.0677 16.8835 29.8208 17.4338L30.6284 19.2635ZM34.2401 16.1239C35.0524 14.7168 35.4141 12.9119 35.4141 10.79H33.4141C33.4141 12.7112 33.0824 14.1289 32.508 15.1241L34.2401 16.1239ZM35.4141 10.79C35.4141 7.28709 34.0789 4.5811 31.3412 2.86723L30.2799 4.56245C32.3469 5.8564 33.4141 7.86721 33.4141 10.79H35.4141ZM31.3427 2.86821C30.5468 2.36791 29.5415 1.96894 28.3609 1.65068L27.8403 3.58175C28.9057 3.86895 29.7071 4.2024 30.2784 4.56148L31.3427 2.86821ZM28.363 1.65125C27.1964 1.33402 25.9552 1.10061 24.641 0.948974L24.4117 2.93579C25.6366 3.07712 26.7782 3.29294 27.8382 3.58117L28.363 1.65125ZM23.5264 1.94238V19.7256H25.5264V1.94238H23.5264ZM42.6465 18.9492L42.9319 19.9076L43.6465 19.6949V18.9492H42.6465ZM42.6465 2.74805H43.6465V1.99868L42.9273 1.78828L42.6465 2.74805ZM39.8926 1.94238L38.9129 1.74173L38.7282 2.64365L39.6118 2.90215L39.8926 1.94238ZM40.1416 0.726562V-0.273438H39.3257L39.1619 0.525909L40.1416 0.726562ZM48.3447 0.726562L49.3275 0.911549L49.5505 -0.273438H48.3447V0.726562ZM48.1104 1.97168L48.4011 2.92848L48.981 2.75227L49.0931 2.15667L48.1104 1.97168ZM45.459 2.77734L45.1682 1.82054L44.459 2.03606V2.77734H45.459ZM45.459 18.9492H44.459V19.7003L45.1803 19.9096L45.459 18.9492ZM48.2861 19.7695L49.2589 20.0012L49.4796 19.0746L48.5648 18.8091L48.2861 19.7695ZM47.9932 21V22H48.783L48.966 21.2316L47.9932 21ZM39.79 21L38.8086 20.8082L38.5757 22H39.79V21ZM40.0391 19.7256L39.7537 18.7672L39.1737 18.9399L39.0576 19.5338L40.0391 19.7256ZM43.6465 18.9492V2.74805H41.6465V18.9492H43.6465ZM42.9273 1.78828L40.1734 0.982612L39.6118 2.90215L42.3657 3.70782L42.9273 1.78828ZM40.8722 2.14304L41.1213 0.927216L39.1619 0.525909L38.9129 1.74173L40.8722 2.14304ZM40.1416 1.72656H48.3447V-0.273438H40.1416V1.72656ZM47.362 0.541576L47.1276 1.78669L49.0931 2.15667L49.3275 0.911549L47.362 0.541576ZM47.8196 1.01488L45.1682 1.82054L45.7497 3.73415L48.4011 2.92848L47.8196 1.01488ZM44.459 2.77734V18.9492H46.459V2.77734H44.459ZM45.1803 19.9096L48.0075 20.7299L48.5648 18.8091L45.7376 17.9888L45.1803 19.9096ZM47.3133 19.5379L47.0204 20.7684L48.966 21.2316L49.2589 20.0012L47.3133 19.5379ZM47.9932 20H39.79V22H47.9932V20ZM40.7715 21.1918L41.0205 19.9174L39.0576 19.5338L38.8086 20.8082L40.7715 21.1918ZM40.3244 20.684L42.9319 19.9076L42.3611 17.9908L39.7537 18.7672L40.3244 20.684ZM59.8145 6.07324L58.8917 5.68791L58.8906 5.69044L59.8145 6.07324ZM63.0811 1.81055L62.488 1.00535L62.4854 1.00728L63.0811 1.81055ZM72.4854 1.38574L71.9642 2.2392L71.9689 2.24208L72.4854 1.38574ZM75.5322 4.74023L74.6426 5.19693L74.6463 5.20402L75.5322 4.74023ZM75.5322 15.6826L74.6123 15.2905L74.6113 15.293L75.5322 15.6826ZM62.8906 20.3555L62.3723 21.2107L62.3799 21.2152L62.8906 20.3555ZM59.8291 17.001L58.9383 17.4554L58.9407 17.4601L59.8291 17.001ZM63.4619 16.7666L64.2458 16.1456L64.2419 16.1408L63.4619 16.7666ZM65.7031 18.5537L65.2637 19.452L65.2717 19.4558L65.7031 18.5537ZM70.4639 18.8906L70.7801 19.8393L70.7889 19.8363L70.4639 18.8906ZM72.0459 17.8799L72.7759 18.5633L72.7778 18.5613L72.0459 17.8799ZM73.2471 15.2725L72.275 15.0375L72.2732 15.0452L73.2471 15.2725ZM73.5107 8.91504L72.5174 9.03055L72.519 9.04338L73.5107 8.91504ZM72.9248 6.61523L72.0034 7.00379L72.0037 7.00445L72.9248 6.61523ZM71.4746 4.47656L70.7675 5.18369L70.7731 5.18921L71.4746 4.47656ZM65.0146 2.83594L64.7072 1.88436L64.7029 1.88578L65.0146 2.83594ZM63.418 3.77344L62.7271 3.05041L62.7201 3.05721L63.418 3.77344ZM62.4658 5.39941L63.4064 5.73906L63.4079 5.73493L62.4658 5.39941ZM61.8945 7.64062L60.9071 7.48215L60.9053 7.49408L61.8945 7.64062ZM59.7158 11.874C59.7158 9.89293 60.0608 8.09093 60.7383 6.45604L58.8906 5.69044C58.1032 7.59071 57.7158 9.6559 57.7158 11.874H59.7158ZM60.7372 6.45858C61.4156 4.83408 62.3971 3.56264 63.6767 2.61381L62.4854 1.00728C60.894 2.18736 59.6977 3.75772 58.8917 5.68791L60.7372 6.45858ZM63.6741 2.61574C64.9262 1.69357 66.445 1.21387 68.2812 1.21387V-0.786133C66.0745 -0.786133 64.1265 -0.201385 62.488 1.00535L63.6741 2.61574ZM68.2812 1.21387C69.624 1.21387 70.8445 1.55542 71.9642 2.23919L73.0065 0.532299C71.5676 -0.346432 69.9854 -0.786133 68.2812 -0.786133V1.21387ZM71.9689 2.24208C73.0731 2.90796 73.9665 3.87992 74.6426 5.19691L76.4219 4.28356C75.594 2.67086 74.4562 1.4065 73.0018 0.529405L71.9689 2.24208ZM74.6463 5.20402C75.3205 6.49193 75.6748 8.02655 75.6748 9.83789H77.6748C77.6748 7.76252 77.2674 5.89869 76.4182 4.27645L74.6463 5.20402ZM75.6748 9.83789C75.6748 11.8242 75.3168 13.6377 74.6123 15.2905L76.4521 16.0747C77.2711 14.1533 77.6748 12.0704 77.6748 9.83789H75.6748ZM74.6113 15.293C73.9227 16.9205 72.9403 18.1877 71.6709 19.1267L72.8603 20.7346C74.4425 19.5642 75.6379 17.9994 76.4532 16.0723L74.6113 15.293ZM71.6709 19.1267C70.4321 20.0431 68.9701 20.5127 67.2412 20.5127V22.5127C69.3599 22.5127 71.2476 21.9276 72.8603 20.7346L71.6709 19.1267ZM67.2412 20.5127C65.8081 20.5127 64.5362 20.1698 63.4013 19.4957L62.3799 21.2152C63.8427 22.0841 65.4712 22.5127 67.2412 22.5127V20.5127ZM63.4089 19.5003C62.2909 18.8227 61.3925 17.848 60.7175 16.5419L58.9407 17.4601C59.7696 19.0641 60.9122 20.3258 62.3723 21.2107L63.4089 19.5003ZM60.7199 16.5466C60.0626 15.2579 59.7158 13.7105 59.7158 11.874H57.7158C57.7158 13.9633 58.1112 15.8339 58.9383 17.4554L60.7199 16.5466ZM62.6781 17.3876C63.3704 18.2615 64.2371 18.9498 65.2637 19.452L66.1425 17.6554C65.3723 17.2787 64.7448 16.7756 64.2458 16.1456L62.6781 17.3876ZM65.2717 19.4558C66.3035 19.9493 67.3931 20.1982 68.5303 20.1982V18.1982C67.6948 18.1982 66.8997 18.0175 66.1346 17.6516L65.2717 19.4558ZM68.5303 20.1982C69.3073 20.1982 70.059 20.0797 70.7801 19.8393L70.1476 17.9419C69.6383 18.1117 69.1009 18.1982 68.5303 18.1982V20.1982ZM70.7889 19.8363C71.5602 19.5712 72.2289 19.1476 72.7759 18.5633L71.3159 17.1965C71.0035 17.5301 70.6176 17.7804 70.1388 17.9449L70.7889 19.8363ZM72.7778 18.5613C73.4724 17.8152 73.9279 16.7555 74.2209 15.4997L72.2732 15.0452C72.0194 16.1332 71.6741 16.8117 71.314 17.1985L72.7778 18.5613ZM74.2191 15.5074C74.5177 14.2716 74.6719 13.0935 74.6719 11.9766H72.6719C72.6719 12.9104 72.5428 13.9295 72.2751 15.0376L74.2191 15.5074ZM74.6719 11.9766C74.6719 10.7399 74.6172 9.6735 74.5025 8.7867L72.519 9.04338C72.6191 9.81673 72.6719 10.7914 72.6719 11.9766H74.6719ZM74.504 8.79954C74.3968 7.87692 74.1801 7.01673 73.846 6.22602L72.0037 7.00445C72.2555 7.60046 72.4294 8.27347 72.5174 9.03054L74.504 8.79954ZM73.8462 6.22668C73.4534 5.29504 72.8954 4.47191 72.1761 3.76391L70.7731 5.18921C71.3038 5.71168 71.7126 6.31433 72.0034 7.00379L73.8462 6.22668ZM72.1817 3.76946C71.4781 3.06586 70.6699 2.5154 69.7619 2.12305L68.9686 3.95898C69.6426 4.25022 70.2406 4.6568 70.7675 5.18367L72.1817 3.76946ZM69.7619 2.12305C68.8505 1.72924 67.9053 1.52832 66.9336 1.52832V3.52832C67.622 3.52832 68.2979 3.6692 68.9686 3.95898L69.7619 2.12305ZM66.9336 1.52832C66.1811 1.52832 65.4378 1.64833 64.7072 1.88437L65.3221 3.78751C65.861 3.61339 66.3971 3.52832 66.9336 3.52832V1.52832ZM64.7029 1.88578C63.948 2.13347 63.2831 2.5192 62.7271 3.05045L64.1088 4.49643C64.4318 4.18783 64.8313 3.94856 65.3264 3.78609L64.7029 1.88578ZM62.7201 3.05721C62.1936 3.57021 61.8087 4.26391 61.5238 5.0639L63.4079 5.73493C63.6307 5.10914 63.8806 4.71885 64.1158 4.48967L62.7201 3.05721ZM61.5253 5.05977C61.2487 5.82572 61.0433 6.63379 60.9072 7.48216L62.8819 7.79909C62.9996 7.06543 63.1752 6.37936 63.4064 5.73906L61.5253 5.05977ZM60.9053 7.49408C60.7826 8.32258 60.7188 9.09035 60.7188 9.79395H62.7188C62.7188 9.20847 62.7721 8.5407 62.8837 7.78717L60.9053 7.49408ZM60.7188 9.79395C60.7188 11.3127 60.8452 12.7011 61.106 13.953L63.0639 13.5451C62.8365 12.4532 62.7188 11.2049 62.7188 9.79395H60.7188ZM61.106 13.953C61.3786 15.2617 61.8988 16.4164 62.6819 17.3924L64.2419 16.1408C63.6773 15.4371 63.2796 14.5801 63.0639 13.5451L61.106 13.953ZM83.7939 20.3408L83.2841 21.2011L83.2869 21.2028L83.7939 20.3408ZM80.6445 6.08789L81.5752 6.45387L81.5759 6.45209L80.6445 6.08789ZM83.6182 1.95703L83.0103 1.16294L83.0059 1.1664L83.6182 1.95703ZM86.167 0.638672L86.4553 1.59626L86.4647 1.59333L86.167 0.638672ZM92.4219 0.609375L92.2258 1.58996L92.3926 1.62333L92.5611 1.59963L92.4219 0.609375ZM94.2969 0.345703L95.2915 0.242433L95.1844 -0.788951L94.1576 -0.644553L94.2969 0.345703ZM94.8535 5.70703L95.0865 6.67951L95.9387 6.47535L95.8482 5.60376L94.8535 5.70703ZM93.4473 6.04395L92.536 6.45577L92.8764 7.20901L93.6803 7.01642L93.4473 6.04395ZM92.0703 2.99707L92.9816 2.58525L92.8219 2.23201L92.4659 2.07866L92.0703 2.99707ZM90.2686 2.39648L90.0462 3.37146L90.0498 3.37227L90.2686 2.39648ZM86.2402 2.54297L86.5565 3.49169L86.5649 3.48879L86.2402 2.54297ZM84.7168 3.34863L84.0611 2.5936L84.0557 2.59831L84.0503 2.6031L84.7168 3.34863ZM83.1348 6.07324L82.1853 5.75925L82.1831 5.76602L83.1348 6.07324ZM82.9883 13.9688L82.0251 14.2378L82.0281 14.2481L82.9883 13.9688ZM84.3066 16.6934L83.5117 17.3L83.5133 17.3022L84.3066 16.6934ZM86.5186 18.5537L86.0841 19.4544L86.5186 18.5537ZM91.0449 18.832L91.307 19.7971L91.3181 19.794L91.0449 18.832ZM94.9268 17.4551L95.7644 16.9088L95.2772 16.1618L94.4795 16.5607L94.9268 17.4551ZM95.5859 18.4658L96.277 19.1886L96.877 18.6149L96.4235 17.9196L95.5859 18.4658ZM92.2754 20.7949L92.6792 21.7098L92.683 21.7081L92.2754 20.7949ZM88.4082 20.5127C86.814 20.5127 85.4556 20.1581 84.301 19.4789L83.2869 21.2028C84.7885 22.086 86.5063 22.5127 88.4082 22.5127V20.5127ZM84.3037 19.4805C83.1603 18.803 82.2632 17.8323 81.611 16.5367L79.8245 17.4359C80.6372 19.0505 81.7908 20.3162 83.2841 21.2011L84.3037 19.4805ZM81.611 16.5367C80.9621 15.2475 80.6191 13.6938 80.6191 11.8447H78.6191C78.6191 13.941 79.0086 15.815 79.8245 17.4359L81.611 16.5367ZM80.6191 11.8447C80.6191 9.85491 80.9427 8.062 81.5752 6.45387L79.7139 5.72191C78.9791 7.59034 78.6191 9.63532 78.6191 11.8447H80.6191ZM81.5759 6.45209C82.2032 4.84795 83.094 3.62778 84.2305 2.74766L83.0059 1.1664C81.5447 2.298 80.4531 3.83174 79.7132 5.72369L81.5759 6.45209ZM84.226 2.75111C84.9261 2.21522 85.6683 1.83315 86.4553 1.59621L85.8787 -0.318871C84.8493 -0.00893503 83.8923 0.487901 83.0104 1.16295L84.226 2.75111ZM86.4647 1.59333C87.261 1.34503 88.1741 1.21387 89.2139 1.21387V-0.786133C88.0076 -0.786133 86.8894 -0.634097 85.8693 -0.315991L86.4647 1.59333ZM89.2139 1.21387C89.6554 1.21387 90.1088 1.24477 90.5746 1.30747L90.8414 -0.674654C90.2915 -0.748675 89.7489 -0.786133 89.2139 -0.786133V1.21387ZM90.5746 1.30747C91.0568 1.37238 91.6067 1.46614 92.2258 1.58996L92.618 -0.371206C91.9676 -0.501291 91.3748 -0.602847 90.8414 -0.674654L90.5746 1.30747ZM92.5611 1.59963L94.4361 1.33596L94.1576 -0.644553L92.2826 -0.380882L92.5611 1.59963ZM93.3022 0.448973L93.8589 5.8103L95.8482 5.60376L95.2915 0.242433L93.3022 0.448973ZM94.6205 4.73455L93.2143 5.07147L93.6803 7.01642L95.0865 6.67951L94.6205 4.73455ZM94.3585 5.63212L92.9816 2.58525L91.159 3.40889L92.536 6.45577L94.3585 5.63212ZM92.4659 2.07866C91.7845 1.78514 91.1245 1.56351 90.4873 1.42069L90.0498 3.37227C90.5455 3.48336 91.0865 3.66213 91.6747 3.91548L92.4659 2.07866ZM90.4909 1.42152C89.8418 1.27346 89.1044 1.20605 88.291 1.20605V3.20605C89.0011 3.20605 89.5821 3.2656 90.0462 3.37145L90.4909 1.42152ZM88.291 1.20605C87.4711 1.20605 86.6775 1.33557 85.9155 1.59715L86.5649 3.48879C87.1115 3.30114 87.6852 3.20605 88.291 3.20605V1.20605ZM85.924 1.59429C85.1992 1.83588 84.5617 2.15888 84.0611 2.5936L85.3725 4.10367C85.6141 3.89385 85.9922 3.67974 86.5565 3.49165L85.924 1.59429ZM84.0503 2.6031C83.2252 3.34073 82.6245 4.43123 82.1853 5.75926L84.0842 6.38723C84.4653 5.23478 84.9193 4.50888 85.3833 4.09417L84.0503 2.6031ZM82.1831 5.76602C81.7407 7.13647 81.5342 8.78083 81.5342 10.6729H83.5342C83.5342 8.91253 83.728 7.49049 84.0864 6.38046L82.1831 5.76602ZM81.5342 10.6729C81.5342 11.8781 81.6982 13.0672 82.0251 14.2377L83.9514 13.6998C83.6729 12.7024 83.5342 11.6942 83.5342 10.6729H81.5342ZM82.0281 14.2481C82.3684 15.4178 82.8573 16.4425 83.5117 17.3L85.1016 16.0867C84.6232 15.4598 84.2332 14.6682 83.9485 13.6894L82.0281 14.2481ZM83.5133 17.3022C84.2388 18.2475 85.0936 18.9766 86.0841 19.4544L86.953 17.653C86.2833 17.33 85.6635 16.8189 85.0999 16.0845L83.5133 17.3022ZM86.0841 19.4544C87.0506 19.9206 88.0781 20.1543 89.1553 20.1543V18.1543C88.3769 18.1543 87.6466 17.9876 86.953 17.653L86.0841 19.4544ZM89.1553 20.1543C89.7547 20.1543 90.4841 20.0206 91.307 19.7971L90.7828 17.867C90.0237 18.0732 89.4933 18.1543 89.1553 18.1543V20.1543ZM91.3181 19.794C92.1316 19.563 92.926 19.3066 93.7011 19.0248L93.0176 17.1452C92.2889 17.4102 91.5403 17.6518 90.7718 17.8701L91.3181 19.794ZM93.7011 19.0248C94.4525 18.7515 95.024 18.5245 95.374 18.3495L94.4795 16.5607C94.2436 16.6786 93.7702 16.8715 93.0176 17.1452L93.7011 19.0248ZM94.0891 18.0013L94.7483 19.0121L96.4235 17.9196L95.7644 16.9088L94.0891 18.0013ZM94.8949 17.743C93.8419 18.7498 92.8317 19.4514 91.8677 19.8818L92.683 21.7081C93.9066 21.1618 95.1034 20.3108 96.277 19.1886L94.8949 17.743ZM91.8715 19.8801C90.9434 20.2898 89.7983 20.5127 88.4082 20.5127V22.5127C90.0063 22.5127 91.4394 22.257 92.6792 21.7098L91.8715 19.8801ZM100.127 18.9639L100.419 19.9202L101.127 19.704V18.9639H100.127ZM100.127 2.74805H101.127V2.00364L100.414 1.79008L100.127 2.74805ZM97.3877 1.92773L96.4085 1.72473L96.2224 2.62264L97.1008 2.8857L97.3877 1.92773ZM97.6367 0.726562V-0.273438H96.8228L96.6575 0.523562L97.6367 0.726562ZM105.811 0.814453L105.735 1.81166L105.747 1.81246L105.811 0.814453ZM108.14 1.19531L107.886 2.16255L107.889 2.16331L108.14 1.19531ZM110.322 2.16211L109.77 2.99604L109.771 2.99613L110.322 2.16211ZM107.949 11.1855L107.676 10.2235L106.426 10.5785L107.089 11.6962L107.949 11.1855ZM112.49 18.832L111.63 19.3426L111.818 19.6584L112.165 19.7778L112.49 18.832ZM115.347 19.8135L116.32 20.0418L116.527 19.1616L115.672 18.8677L115.347 19.8135ZM115.068 21V22H115.861L116.042 21.2284L115.068 21ZM109.561 21L108.579 20.8088L108.347 22H109.561V21ZM109.78 19.8721L110.762 20.0633L110.831 19.7086L110.657 19.3917L109.78 19.8721ZM104.902 10.9658L104.554 10.0283L103.469 10.4311L104.025 11.4462L104.902 10.9658ZM107.803 9.47168L107.182 8.68738L107.177 8.69196L107.803 9.47168ZM109.077 7.9043L108.145 7.54185L108.142 7.54939L108.139 7.55698L109.077 7.9043ZM108.433 3.74414L107.742 4.46777L107.748 4.47333L108.433 3.74414ZM106.016 2.41113L105.726 3.36823L105.737 3.37156L106.016 2.41113ZM102.939 1.89844L102.984 0.89945L101.939 0.852378V1.89844H102.939ZM102.939 18.7881H101.939V19.5561L102.681 19.7542L102.939 18.7881ZM105.957 19.5938L106.934 19.8074L107.138 18.8741L106.215 18.6276L105.957 19.5938ZM105.649 21V22H106.454L106.626 21.2137L105.649 21ZM97.2852 21L96.2988 20.8356L96.1047 22H97.2852V21ZM97.4902 19.7695L97.198 18.8132L96.6057 18.9942L96.5038 19.6051L97.4902 19.7695ZM101.127 18.9639V2.74805H99.127V18.9639H101.127ZM100.414 1.79008L97.6746 0.969767L97.1008 2.8857L99.8401 3.70601L100.414 1.79008ZM98.3669 2.13073L98.6159 0.929563L96.6575 0.523562L96.4085 1.72473L98.3669 2.13073ZM97.6367 1.72656H103.042V-0.273438H97.6367V1.72656ZM103.042 1.72656C104.1 1.72656 104.996 1.75547 105.735 1.81158L105.886 -0.182675C105.082 -0.243755 104.133 -0.273438 103.042 -0.273438V1.72656ZM105.747 1.81246C106.452 1.85703 107.164 1.97312 107.886 2.16254L108.394 0.228082C107.553 0.00734643 106.712 -0.130466 105.874 -0.18355L105.747 1.81246ZM107.889 2.16331C108.576 2.34138 109.201 2.6192 109.77 2.99604L110.874 1.32818C110.115 0.826108 109.286 0.459403 108.391 0.227316L107.889 2.16331ZM109.771 2.99613C110.262 3.32145 110.654 3.7517 110.949 4.30391L112.713 3.36015C112.266 2.52565 111.652 1.84262 110.874 1.32809L109.771 2.99613ZM110.949 4.30391C111.243 4.85312 111.388 5.42847 111.388 6.04395H113.388C113.388 5.09692 113.161 4.19766 112.713 3.36015L110.949 4.30391ZM111.388 6.04395C111.388 7.13444 111.082 7.96731 110.521 8.61681C109.947 9.28153 109.033 9.83838 107.676 10.2235L108.222 12.1475C109.824 11.6929 111.129 10.9729 112.035 9.92372C112.954 8.85935 113.388 7.54134 113.388 6.04395H111.388ZM107.089 11.6962L111.63 19.3426L113.35 18.3214L108.809 10.6749L107.089 11.6962ZM112.165 19.7778L115.022 20.7592L115.672 18.8677L112.815 17.8863L112.165 19.7778ZM114.373 19.5851L114.095 20.7716L116.042 21.2284L116.32 20.0418L114.373 19.5851ZM115.068 20H109.561V22H115.068V20ZM110.542 21.1912L110.762 20.0633L108.799 19.6809L108.579 20.8088L110.542 21.1912ZM110.657 19.3917L105.779 10.4855L104.025 11.4462L108.903 20.3524L110.657 19.3917ZM105.25 11.9033C106.583 11.4088 107.664 10.866 108.429 10.2514L107.177 8.69196C106.653 9.11253 105.8 9.56584 104.554 10.0283L105.25 11.9033ZM108.423 10.256C109.156 9.67598 109.732 9.01487 110.015 8.25161L108.139 7.55698C108.031 7.84841 107.758 8.23222 107.182 8.6874L108.423 10.256ZM110.009 8.26674C110.27 7.59674 110.385 6.84308 110.385 6.0293H108.385C108.385 6.66082 108.295 7.15717 108.145 7.54185L110.009 8.26674ZM110.385 6.0293C110.385 4.84566 109.967 3.81316 109.117 3.01495L107.748 4.47333C108.167 4.86652 108.385 5.35746 108.385 6.0293H110.385ZM109.123 3.02053C108.355 2.28777 107.4 1.7715 106.294 1.4507L105.737 3.37156C106.584 3.61717 107.241 3.98957 107.742 4.46775L109.123 3.02053ZM106.306 1.45411C105.254 1.1353 104.145 0.951746 102.984 0.89945L102.894 2.89742C103.901 2.94279 104.844 3.10102 105.726 3.36816L106.306 1.45411ZM101.939 1.89844V18.7881H103.939V1.89844H101.939ZM102.681 19.7542L105.699 20.5599L106.215 18.6276L103.197 17.8219L102.681 19.7542ZM104.98 19.3801L104.673 20.7863L106.626 21.2137L106.934 19.8074L104.98 19.3801ZM105.649 20H97.2852V22H105.649V20ZM98.2716 21.1644L98.4766 19.9339L96.5038 19.6051L96.2988 20.8356L98.2716 21.1644ZM97.7825 20.7259L100.419 19.9202L99.8347 18.0075L97.198 18.8132L97.7825 20.7259Z" fill="white"/>
</svg>
