<svg width="58" height="58" viewBox="0 0 58 58" fill="none" xmlns="http://www.w3.org/2000/svg">
<path d="M21.2325 32.7017L14.5589 36.5439L9.0625 33.4844L21.2325 26.7969V32.7011" fill="#BEBEBE"/>
<path d="M29.3234 50.7504V44.7566L9.0625 33.4849L9.24176 39.2103L29.3234 50.7504Z" fill="#0B4A7D"/>
<path d="M40.1486 44.8908L29.6372 50.7503V44.8908L37.2826 40.79L40.1488 44.8908" fill="#0B4A7D"/>
<path d="M26.2752 18.0532L26.2304 42.1847L21.2325 39.4634V25.2716L16.9517 27.491V23.0852L26.2752 18.0532Z" fill="#0B4A7D"/>
<path d="M44.31 21.4741L37.7207 25.2163C37.7207 25.2163 40.0068 26.6924 40.4694 29.5103L49.7481 24.396L44.31 21.4741Z" fill="#BEBEBE"/>
<path d="M17.0415 14.0041C16.7387 14.141 16.5026 14.3921 16.385 14.7023C16.2673 15.0126 16.2778 15.3567 16.414 15.6593C16.8173 16.2853 18.4318 17.0458 18.4318 17.0458C19.9558 17.6719 21.9734 17.0458 21.9734 17.0458L29.1006 13.199V7.25L17.0415 14.0041Z" fill="#0B4A7D"/>
<path d="M29.7266 7.25V13.1391L44.3099 21.5034L49.748 24.426V18.7008L29.7266 7.25Z" fill="#0B4A7D"/>
<path d="M35.7091 22.7654C35.2901 22.6916 34.8654 22.6546 34.4399 22.6548H34.4379C34.0124 22.6546 33.5878 22.6916 33.1687 22.7654C29.2671 23.4608 26.6597 27.1936 27.3563 31.0867L27.4017 31.3322C28.3009 35.8928 32.2292 39.7746 33.8765 41.2324L33.9088 41.2596L34.4379 41.6824V41.684V41.6824L34.9669 41.2596L34.9994 41.2324C36.6467 39.7746 40.575 35.8928 41.4742 31.3322L41.5196 31.0867C42.2188 27.1936 39.6108 23.4608 35.7091 22.7654ZM39.8555 30.7846L39.8118 31.0155C39.2936 33.6537 37.3018 36.7687 34.4388 39.4564C31.576 36.7687 29.5851 33.6537 29.0649 31.0155L29.0213 30.7846C28.4897 27.8138 30.4839 24.9604 33.4652 24.4291C33.7861 24.3724 34.1114 24.3442 34.4373 24.3445C34.7632 24.3442 35.0885 24.3724 35.4094 24.4291C38.394 24.9604 40.3871 27.8138 39.8555 30.7846Z" fill="url(#paint0_linear_4080_104942)"/>
<path d="M34.09 41.0355L34.0636 41.0137C32.4433 39.5795 28.5678 35.7514 27.6857 31.2773L27.6407 31.0351C26.9725 27.3003 29.4744 23.7174 33.22 23.0499C33.6042 22.9822 33.9933 22.9467 34.3834 22.9438L34.7274 23.0809V22.9502C35.0397 22.9627 35.3507 22.9962 35.6585 23.0506C39.4032 23.7174 41.906 27.3003 41.2369 31.0368L41.1932 31.28C40.3117 35.7504 36.4363 39.5795 34.811 41.0172L34.7839 41.039L34.4403 41.3132L34.09 41.0355ZM34.3738 24.0572C34.0523 24.0603 33.7316 24.0899 33.415 24.1459C30.2767 24.705 28.1784 27.7075 28.7383 30.836L28.782 31.0687C29.3151 33.7766 31.3042 36.9095 34.2413 39.6666L34.4392 39.8524L34.6372 39.6666C37.5736 36.9088 39.5634 33.7759 40.0967 31.0715L40.1404 30.8371C40.2853 30.03 40.2559 29.2014 40.0544 28.4065C39.8528 27.6116 39.4836 26.8688 38.9715 26.2276C38.4593 25.5864 37.816 25.0616 37.0844 24.6882C36.3529 24.3149 35.5499 24.1015 34.7292 24.0624V23.8954L34.3738 24.0572Z" fill="url(#paint1_linear_4080_104942)" style="mix-blend-mode:screen"/>
<path d="M34.4459 32.9137C36.1542 32.9137 37.5392 31.5317 37.5392 29.827C37.5392 28.1222 36.1542 26.7402 34.4459 26.7402C32.7375 26.7402 31.3525 28.1222 31.3525 29.827C31.3525 31.5317 32.7375 32.9137 34.4459 32.9137Z" fill="url(#paint2_linear_4080_104942)"/>
<path d="M36.433 31.8087C37.5303 30.7138 37.5303 28.9386 36.433 27.8436C35.3358 26.7487 33.5567 26.7487 32.4594 27.8436C31.3622 28.9386 31.3622 30.7138 32.4594 31.8087C33.5567 32.9037 35.3358 32.9037 36.433 31.8087Z" fill="url(#paint3_linear_4080_104942)" style="mix-blend-mode:screen"/>
<path d="M43.5155 37.5405L41.2057 35.2358C41.1316 35.1611 41.0432 35.1019 40.9459 35.0616C40.8481 35.0197 40.7422 35 40.6358 35.0038C40.5294 35.0075 40.4251 35.0347 40.3305 35.0834L39.8284 34.5823C40.7047 33.595 41.2906 32.3853 41.5216 31.0867C42.2182 27.1934 39.6108 23.4606 35.7091 22.7654C35.2901 22.6916 34.8654 22.6546 34.4399 22.6548H34.4379C34.0124 22.6546 33.5878 22.6916 33.1687 22.7654C29.2671 23.4608 26.6597 27.1936 27.3563 31.0867C27.6499 32.7442 28.5196 34.2455 29.8125 35.3266C31.1053 36.4077 32.7387 36.9995 34.4255 36.9981H34.4541C36.1876 37.0001 37.863 36.3745 39.1694 35.2374L39.6741 35.741C39.6253 35.8354 39.5981 35.9394 39.5943 36.0456C39.5905 36.1518 39.6103 36.2574 39.6523 36.3551C39.6926 36.4522 39.752 36.5403 39.8269 36.6143L42.1367 38.9192C42.4325 39.2144 42.8936 39.2298 43.1678 38.9562L43.3474 38.7767L43.3756 38.7489L43.5555 38.5694C43.8268 38.2958 43.8111 37.8366 43.5155 37.5405ZM34.453 35.3084H34.4414H34.439H34.4364H34.4255C33.1363 35.3094 31.8881 34.8571 30.9 34.0308C29.912 33.2044 29.2475 32.0571 29.0232 30.7903C28.4908 27.8142 30.4839 24.9608 33.4663 24.4295C33.7872 24.3729 34.1125 24.3446 34.4384 24.345C34.7643 24.3446 35.0896 24.3729 35.4105 24.4295C38.3929 24.9608 40.386 27.8142 39.8535 30.7903C39.6293 32.0567 38.965 33.2039 37.9773 34.0301C36.9897 34.8564 35.7418 35.309 34.453 35.3084Z" fill="url(#paint4_linear_4080_104942)"/>
<path d="M42.6835 38.9586C42.528 38.9565 42.3796 38.8933 42.2704 38.7828L39.9606 36.4779C39.9043 36.4219 39.8598 36.3553 39.8296 36.2819C39.7982 36.2105 39.7831 36.1331 39.7854 36.0552C39.7877 35.9772 39.8072 35.9008 39.8427 35.8314L39.9102 35.7055L39.1774 34.9744L39.0418 35.0923C37.77 36.1973 36.1404 36.8059 34.454 36.8055H34.4258C32.7844 36.8065 31.1952 36.2304 29.9371 35.1785C28.679 34.1265 27.8324 32.6659 27.5461 31.0532C26.8683 27.2644 29.406 23.6313 33.2033 22.9547C33.5477 22.8936 33.8961 22.8583 34.2457 22.8491V22.9939L34.4928 22.8467C34.8894 22.8494 35.2851 22.8854 35.6756 22.9543C39.4725 23.6309 42.01 27.2639 41.3324 31.0527C41.1068 32.3163 40.5367 33.4934 39.6845 34.4547L39.5642 34.5902L40.2957 35.3201L40.4219 35.2526C40.4939 35.2148 40.5741 35.1953 40.6555 35.1957C40.7304 35.1959 40.8045 35.2107 40.8738 35.2393C40.9473 35.2695 41.014 35.3139 41.0702 35.37L43.3801 37.6747C43.5984 37.8925 43.6158 38.2332 43.4172 38.4317L43.0295 38.8186C42.984 38.8633 42.93 38.8986 42.8707 38.9224C42.8114 38.9462 42.748 38.9581 42.6841 38.9573L42.6835 38.9586ZM34.4396 35.5184L34.4819 35.5001C35.9814 35.4887 37.4156 34.8869 38.4725 33.8254C39.5294 32.764 40.1233 31.329 40.125 29.8327C40.1267 28.3364 39.5361 26.9 38.4816 25.8362C37.4271 24.7724 35.9942 24.1673 34.4948 24.1526L34.2473 24.0001V24.1548C32.7587 24.2027 31.3485 24.8315 30.3196 25.906C29.2908 26.9805 28.7254 28.4148 28.7451 29.9008C28.7648 31.3868 29.368 32.8058 30.425 33.8527C31.482 34.8996 32.9084 35.491 34.3977 35.4996L34.4396 35.5184Z" fill="url(#paint5_linear_4080_104942)" style="mix-blend-mode:screen"/>
<defs>
<linearGradient id="paint0_linear_4080_104942" x1="32.3811" y1="21.7976" x2="38.0547" y2="44.1079" gradientUnits="userSpaceOnUse">
<stop stop-color="#3971A0"/>
<stop offset="0.13" stop-color="#2D6797"/>
<stop offset="0.41" stop-color="#1A5788"/>
<stop offset="0.7" stop-color="#0F4D80"/>
<stop offset="1" stop-color="#0B4A7D"/>
</linearGradient>
<linearGradient id="paint1_linear_4080_104942" x1="13751.4" y1="16210.6" x2="15883.7" y2="26513.1" gradientUnits="userSpaceOnUse">
<stop stop-color="#3971A0"/>
<stop offset="0.13" stop-color="#2D6797"/>
<stop offset="0.41" stop-color="#1A5788"/>
<stop offset="0.7" stop-color="#0F4D80"/>
<stop offset="1" stop-color="#0B4A7D"/>
</linearGradient>
<linearGradient id="paint2_linear_4080_104942" x1="32.3945" y1="21.7947" x2="38.0682" y2="44.1051" gradientUnits="userSpaceOnUse">
<stop stop-color="#F09517"/>
<stop offset="0.13" stop-color="#E48C12"/>
<stop offset="0.41" stop-color="#D17D0A"/>
<stop offset="0.7" stop-color="#C67506"/>
<stop offset="1" stop-color="#C27204"/>
</linearGradient>
<linearGradient id="paint3_linear_4080_104942" x1="5301.31" y1="3179.11" x2="5872.75" y2="6392.3" gradientUnits="userSpaceOnUse">
<stop stop-color="#F09517"/>
<stop offset="0.13" stop-color="#E48C12"/>
<stop offset="0.41" stop-color="#D17D0A"/>
<stop offset="0.7" stop-color="#C67506"/>
<stop offset="1" stop-color="#C27204"/>
</linearGradient>
<linearGradient id="paint4_linear_4080_104942" x1="25.9046" y1="13.2565" x2="39.7273" y2="40.2191" gradientUnits="userSpaceOnUse">
<stop stop-color="#3971A0"/>
<stop offset="0.09" stop-color="#27689D"/>
<stop offset="0.18" stop-color="#1C629C"/>
<stop offset="0.28" stop-color="#18609B"/>
<stop offset="0.67" stop-color="#0B4A7D"/>
<stop offset="0.89" stop-color="#063A66"/>
<stop offset="1" stop-color="#032A4B"/>
</linearGradient>
<linearGradient id="paint5_linear_4080_104942" x1="24.4774" y1="15.0316" x2="42.9982" y2="42.6655" gradientUnits="userSpaceOnUse">
<stop stop-color="#18609B"/>
<stop offset="0.28" stop-color="#12558C"/>
<stop offset="0.63" stop-color="#0D4D81"/>
<stop offset="1" stop-color="#0B4A7D"/>
</linearGradient>
</defs>
</svg>
