<svg width="310" height="310" viewBox="0 0 310 310" fill="none" xmlns="http://www.w3.org/2000/svg">
<path d="M103.851 172.689L60.6229 197.615L25.0199 177.767L103.851 134.379V172.685" fill="#BEBEBE"/>
<path d="M156.259 289.766V250.88L25.0199 177.752V214.491L156.259 289.766Z" fill="white"/>
<path d="M226.382 251.765L158.294 289.78V251.765L207.818 225.161L226.383 251.765" fill="white"/>
<path d="M157.497 245.95L178.601 234.644V217.229H177.271V233.933L158.732 243.95H157.497L147.615 238.251L147.714 197.404L145.525 193.109L145.716 239.011L157.497 245.95Z" fill="white"/>
<path d="M176.462 128.699V122.919H145.993V148.949L144.628 151.119V121.079H177.64V128.433" fill="white"/>
<path d="M136.52 77.6504L136.23 234.208L103.855 216.554V124.481L76.1267 138.88V110.297L136.52 77.6504Z" fill="white"/>
<path d="M253.329 111.59L210.647 135.869C210.647 135.869 225.455 145.445 228.452 163.727L288.554 130.546L253.329 111.59Z" fill="#BEBEBE"/>
<path d="M186.297 216.725V230.347C186.297 230.347 205.67 220.011 205.745 220.118L204.938 219.003L187.911 228.027V216.539" fill="white"/>
<path d="M187.878 163.552H217.953V185.101H218.97V161.81H186.382V209.302H187.88L187.878 163.552Z" fill="white"/>
<path d="M218.85 185.09H217.962V187.353L218.977 185.09H218.85Z" fill="black"/>
<path d="M231.843 118.665V120.405L209.288 124.756V123.015L231.843 118.665Z" fill="white"/>
<path d="M186.684 102.098L201.562 121.709L203.304 120.525L188.355 101.082L186.684 102.098Z" fill="white"/>
<path d="M181.91 101.096L165.942 112.483L165.071 111.41L180.651 100.441L181.91 101.096Z" fill="white"/>
<path d="M161.816 109.717L159.836 110.298L153.934 79.6351L156.013 78.8579L161.816 109.717Z" fill="white"/>
<path d="M138.512 70.2183V72.6874L149.726 75.0391L150.161 72.8627L138.512 70.2183Z" fill="white"/>
<path d="M153.554 79.7967C155.94 79.7967 157.874 77.8637 157.874 75.4792C157.874 73.0947 155.94 71.1616 153.554 71.1616C151.169 71.1616 149.234 73.0947 149.234 75.4792C149.234 77.8637 151.169 79.7967 153.554 79.7967Z" fill="white"/>
<path d="M184.82 102.677C187.366 102.677 189.43 100.614 189.43 98.0686C189.43 95.524 187.366 93.4609 184.82 93.4609C182.274 93.4609 180.209 95.524 180.209 98.0686C180.209 100.614 182.274 102.677 184.82 102.677Z" fill="white"/>
<path d="M162.139 118.144C164.586 118.144 166.571 116.162 166.571 113.716C166.571 111.271 164.586 109.289 162.139 109.289C159.692 109.289 157.709 111.271 157.709 113.716C157.709 116.162 159.692 118.144 162.139 118.144Z" fill="white"/>
<path d="M205.112 129.012C207.618 129.012 209.648 126.983 209.648 124.479C209.648 121.977 207.618 119.947 205.112 119.947C202.607 119.947 200.577 121.977 200.577 124.479C200.577 126.983 202.607 129.012 205.112 129.012Z" fill="white"/>
<path d="M76.7055 63.1369C74.7441 64.025 73.215 65.6539 72.4531 67.6668C71.6912 69.6797 71.7587 71.9123 72.6409 73.8754C75.2538 77.9366 85.7113 82.8704 85.7113 82.8704C95.5828 86.9327 108.652 82.8704 108.652 82.8704L154.819 57.914V19.3184L76.7055 63.1369Z" fill="white"/>
<path d="M158.87 19.3184V57.5248L253.334 111.791L288.559 130.752V93.6077L158.87 19.3184Z" fill="white"/>
<path d="M240.898 232.019L220.138 203.29L220.429 199.036C220.429 199.036 245.59 162.763 210.656 136.065C210.656 136.065 174.455 111.979 146.871 147.765C146.871 147.765 130.03 167.788 146.29 197.006C146.29 197.006 160.227 220.313 187.037 217.121C187.037 217.121 193.326 216.83 196.331 215.769C196.331 215.769 200.587 214.8 201.847 216.93L208.381 225.925L226.38 251.752L242.35 242.463C242.35 242.463 246.414 238.838 240.898 232.019ZM183.698 209.091C176.492 209.091 169.446 206.956 163.454 202.954C157.461 198.952 152.791 193.264 150.033 186.61C147.275 179.954 146.554 172.632 147.959 165.567C149.365 158.502 152.836 152.013 157.932 146.92C163.028 141.827 169.52 138.358 176.589 136.953C183.658 135.547 190.984 136.269 197.643 139.026C204.301 141.782 209.993 146.45 213.997 152.439C218.001 158.428 220.138 165.47 220.138 172.672C220.138 182.332 216.299 191.595 209.465 198.425C202.631 205.255 193.363 209.091 183.698 209.091Z" fill="white"/>
</svg>
