<svg width="106" height="16" viewBox="0 0 106 16" fill="none" xmlns="http://www.w3.org/2000/svg">
<path d="M0.107955 15V13.1747L7.36648 2.99006H0.09375V0.454545H11.2301V2.27983L3.96449 12.4645H11.2443V15H0.107955Z" fill="#F19618"/>
<path d="M26.4379 5.54688H23.3271C23.2702 5.14441 23.1542 4.78693 22.979 4.47443C22.8039 4.1572 22.579 3.88731 22.3043 3.66477C22.0297 3.44223 21.7125 3.27178 21.3526 3.15341C20.9975 3.03504 20.6116 2.97585 20.195 2.97585C19.4421 2.97585 18.7863 3.16288 18.2276 3.53693C17.6689 3.90625 17.2357 4.44602 16.9279 5.15625C16.6201 5.86174 16.4663 6.71875 16.4663 7.72727C16.4663 8.7642 16.6201 9.63542 16.9279 10.3409C17.2404 11.0464 17.676 11.5791 18.2347 11.9389C18.7934 12.2988 19.4397 12.4787 20.1737 12.4787C20.5856 12.4787 20.9667 12.4242 21.3171 12.3153C21.6722 12.2064 21.9871 12.0478 22.2617 11.8395C22.5363 11.6264 22.7636 11.3684 22.9435 11.0653C23.1282 10.7623 23.256 10.4167 23.3271 10.0284L26.4379 10.0426C26.3574 10.7102 26.1561 11.3542 25.8342 11.9744C25.5169 12.59 25.0884 13.1416 24.5487 13.6293C24.0136 14.1122 23.3744 14.4957 22.631 14.7798C21.8924 15.0592 21.0567 15.1989 20.1239 15.1989C18.8266 15.1989 17.6665 14.9053 16.6438 14.3182C15.6258 13.7311 14.8209 12.8812 14.229 11.7685C13.6419 10.6558 13.3484 9.30871 13.3484 7.72727C13.3484 6.1411 13.6467 4.79167 14.2433 3.67898C14.8398 2.56629 15.6495 1.71875 16.6722 1.13636C17.695 0.549242 18.8455 0.255681 20.1239 0.255681C20.9667 0.255681 21.748 0.374053 22.4677 0.610795C23.1921 0.847538 23.8337 1.19318 24.3924 1.64773C24.9511 2.09754 25.4057 2.64915 25.756 3.30256C26.1112 3.95597 26.3384 4.70407 26.4379 5.54688ZM42.0096 7.72727C42.0096 9.31345 41.7089 10.6629 41.1076 11.7756C40.511 12.8883 39.6966 13.7382 38.6644 14.3253C37.637 14.9077 36.4817 15.1989 35.1985 15.1989C33.9059 15.1989 32.7459 14.9053 31.7184 14.3182C30.6909 13.7311 29.8789 12.8812 29.2823 11.7685C28.6857 10.6558 28.3874 9.30871 28.3874 7.72727C28.3874 6.1411 28.6857 4.79167 29.2823 3.67898C29.8789 2.56629 30.6909 1.71875 31.7184 1.13636C32.7459 0.549242 33.9059 0.255681 35.1985 0.255681C36.4817 0.255681 37.637 0.549242 38.6644 1.13636C39.6966 1.71875 40.511 2.56629 41.1076 3.67898C41.7089 4.79167 42.0096 6.1411 42.0096 7.72727ZM38.8917 7.72727C38.8917 6.69981 38.7378 5.83333 38.43 5.12784C38.127 4.42235 37.6985 3.88731 37.1445 3.52273C36.5906 3.15814 35.9419 2.97585 35.1985 2.97585C34.4551 2.97585 33.8065 3.15814 33.2525 3.52273C32.6985 3.88731 32.2676 4.42235 31.9599 5.12784C31.6568 5.83333 31.5053 6.69981 31.5053 7.72727C31.5053 8.75473 31.6568 9.62121 31.9599 10.3267C32.2676 11.0322 32.6985 11.5672 33.2525 11.9318C33.8065 12.2964 34.4551 12.4787 35.1985 12.4787C35.9419 12.4787 36.5906 12.2964 37.1445 11.9318C37.6985 11.5672 38.127 11.0322 38.43 10.3267C38.7378 9.62121 38.8917 8.75473 38.8917 7.72727ZM44.2876 15V0.454545H47.3629V12.4645H53.5987V15H44.2876ZM55.6353 15V0.454545H58.7106V12.4645H64.9464V15H55.6353ZM66.983 15V0.454545H76.7841V2.99006H70.0582V6.45597H76.2798V8.99148H70.0582V12.4645H76.8125V15H66.983ZM92.0629 5.54688H88.9521C88.8952 5.14441 88.7792 4.78693 88.604 4.47443C88.4289 4.1572 88.204 3.88731 87.9293 3.66477C87.6547 3.44223 87.3375 3.27178 86.9776 3.15341C86.6225 3.03504 86.2366 2.97585 85.82 2.97585C85.0671 2.97585 84.4113 3.16288 83.8526 3.53693C83.2939 3.90625 82.8607 4.44602 82.5529 5.15625C82.2451 5.86174 82.0913 6.71875 82.0913 7.72727C82.0913 8.7642 82.2451 9.63542 82.5529 10.3409C82.8654 11.0464 83.301 11.5791 83.8597 11.9389C84.4184 12.2988 85.0647 12.4787 85.7987 12.4787C86.2106 12.4787 86.5917 12.4242 86.9421 12.3153C87.2972 12.2064 87.6121 12.0478 87.8867 11.8395C88.1613 11.6264 88.3886 11.3684 88.5685 11.0653C88.7532 10.7623 88.881 10.4167 88.9521 10.0284L92.0629 10.0426C91.9824 10.7102 91.7811 11.3542 91.4592 11.9744C91.1419 12.59 90.7134 13.1416 90.1737 13.6293C89.6386 14.1122 88.9994 14.4957 88.256 14.7798C87.5174 15.0592 86.6817 15.1989 85.7489 15.1989C84.4516 15.1989 83.2915 14.9053 82.2688 14.3182C81.2508 13.7311 80.4459 12.8812 79.854 11.7685C79.2669 10.6558 78.9734 9.30871 78.9734 7.72727C78.9734 6.1411 79.2717 4.79167 79.8683 3.67898C80.4648 2.56629 81.2745 1.71875 82.2972 1.13636C83.32 0.549242 84.4705 0.255681 85.7489 0.255681C86.5917 0.255681 87.373 0.374053 88.0927 0.610795C88.8171 0.847538 89.4587 1.19318 90.0174 1.64773C90.5761 2.09754 91.0307 2.64915 91.381 3.30256C91.7362 3.95597 91.9634 4.70407 92.0629 5.54688ZM93.7141 2.99006V0.454545H105.66V2.99006H101.207V15H98.1673V2.99006H93.7141Z" fill="#003566"/>
</svg>
